<svg width="220" height="220" viewBox="0 0 220 220" fill="none" xmlns="http://www.w3.org/2000/svg">
<circle opacity="0.1" cx="110" cy="110" r="110" fill="#EBFF00"/>
<circle cx="110" cy="110" r="95.5144" fill="#020613"/>
<path d="M205.514 110C205.514 162.751 162.751 205.514 110 205.514C57.2488 205.514 14.4856 162.751 14.4856 110C14.4856 57.2488 57.2488 14.4856 110 14.4856C162.751 14.4856 205.514 57.2488 205.514 110Z" fill="#EBFF00"/>
<path d="M121.4 50.7607H144.022L140.063 73.0329H117.441L121.4 50.7607Z" fill="black"/>
<path d="M66.958 73.0317H117.446L110.834 110.221H60.3479L66.958 73.0317Z" fill="black"/>
<path d="M154.722 147.416H104.234L110.846 110.226H161.334L154.722 147.416Z" fill="black"/>
<path d="M100.277 169.686H77.6562L81.6151 147.414H104.237L100.277 169.686Z" fill="black"/>
<path fill-rule="evenodd" clip-rule="evenodd" d="M110 201.893C160.751 201.893 201.893 160.751 201.893 110C201.893 59.2489 160.751 18.107 110 18.107C59.2489 18.107 18.107 59.2489 18.107 110C18.107 160.751 59.2489 201.893 110 201.893ZM110 205.514C162.751 205.514 205.514 162.751 205.514 110C205.514 57.2488 162.751 14.4856 110 14.4856C57.2488 14.4856 14.4856 57.2488 14.4856 110C14.4856 162.751 57.2488 205.514 110 205.514Z" fill="#B2BF12"/>
</svg>
