<svg width="486" height="486" viewBox="0 0 486 486" fill="none" xmlns="http://www.w3.org/2000/svg">
<circle opacity="0.1" cx="243" cy="243" r="243" fill="#FFAF1D"/>
<circle cx="243" cy="243" r="211" fill="#020613"/>
<path d="M454 243C454 359.532 359.532 454 243 454C126.468 454 32 359.532 32 243C32 126.468 126.468 32 243 32C359.532 32 454 126.468 454 243Z" fill="#FFAF1D" fill-opacity="0.3"/>
<path fill-rule="evenodd" clip-rule="evenodd" d="M243 446C355.114 446 446 355.114 446 243C446 130.886 355.114 40 243 40C130.886 40 40 130.886 40 243C40 355.114 130.886 446 243 446ZM243 454C359.532 454 454 359.532 454 243C454 126.468 359.532 32 243 32C126.468 32 32 126.468 32 243C32 359.532 126.468 454 243 454Z" fill="#FFAF1D"/>
<path d="M263.281 363V266.826C286.258 269.283 301.849 279.813 301.849 279.813L316.503 263.316C292.471 246.234 256.833 245.532 256.833 245.532L250.972 180.948C254.84 178.374 257.419 174.045 257.419 169.014C257.419 161.175 250.972 154.74 243.117 154.74C235.263 154.74 228.815 161.175 228.815 169.014C228.815 174.045 231.394 178.491 235.263 180.948L229.401 245.532C229.401 245.532 193.764 246.117 169.732 263.316L184.385 279.813C184.385 279.813 199.977 269.283 222.954 266.826V363C133.156 296.544 125.771 200.019 126.005 167.961C126.005 161.292 129.991 155.208 136.087 152.517C154.023 144.561 194.936 129 243 129C291.064 129 331.977 144.561 349.913 152.517C356.009 155.208 359.995 161.292 359.995 167.961C360.229 200.019 352.844 296.544 263.281 363Z" fill="#FFAF1D"/>
<circle cx="378" cy="378" r="60" fill="white"/>
<path fill-rule="evenodd" clip-rule="evenodd" d="M378.686 361.355L361.988 390.925H395.383L378.686 361.355ZM382.169 346.168C380.638 343.458 376.733 343.458 375.202 346.168L347.37 395.458C345.865 398.125 347.791 401.425 350.854 401.425H406.518C409.58 401.425 411.506 398.125 410.001 395.458L382.169 346.168Z" fill="#4E3916"/>
</svg>
