<svg width="84" height="84" viewBox="0 0 84 84" fill="none" xmlns="http://www.w3.org/2000/svg">
<circle opacity="0.1" cx="42" cy="42" r="42" fill="#FFAF1D"/>
<circle cx="42" cy="42" r="36.4691" fill="#020613"/>
<path d="M78.4691 42C78.4691 62.1414 62.1413 78.4692 42 78.4692C21.8586 78.4692 5.53086 62.1414 5.53086 42C5.53086 21.8587 21.8586 5.53088 42 5.53088C62.1413 5.53088 78.4691 21.8587 78.4691 42Z" fill="#FFAF1D" fill-opacity="0.3"/>
<path fill-rule="evenodd" clip-rule="evenodd" d="M42 77.0864C61.3777 77.0864 77.0864 61.3777 77.0864 42C77.0864 22.6223 61.3777 6.9136 42 6.9136C22.6223 6.9136 6.91358 22.6223 6.91358 42C6.91358 61.3777 22.6223 77.0864 42 77.0864ZM42 78.4692C62.1413 78.4692 78.4691 62.1414 78.4691 42C78.4691 21.8587 62.1413 5.53088 42 5.53088C21.8586 5.53088 5.53086 21.8587 5.53086 42C5.53086 62.1414 21.8586 78.4692 42 78.4692Z" fill="#FFAF1D"/>
<path d="M45.5053 62.7407V46.118C49.4766 46.5427 52.1714 48.3627 52.1714 48.3627L54.7042 45.5114C50.5505 42.5589 44.3909 42.4376 44.3909 42.4376L43.3778 31.2749C44.0464 30.83 44.4922 30.0818 44.4922 29.2123C44.4922 27.8574 43.3778 26.7452 42.0203 26.7452C40.6627 26.7452 39.5483 27.8574 39.5483 29.2123C39.5483 30.0818 39.9941 30.8503 40.6627 31.2749L39.6496 42.4376C39.6496 42.4376 33.49 42.5387 29.3363 45.5114L31.8691 48.3627C31.8691 48.3627 34.5639 46.5427 38.5352 46.118V62.7407C23.0146 51.2545 21.7381 34.5712 21.7787 29.0303C21.7787 27.8776 22.4676 26.826 23.5212 26.3609C26.6213 24.9858 33.6926 22.2963 42 22.2963C50.3074 22.2963 57.3787 24.9858 60.4788 26.3609C61.5324 26.826 62.2213 27.8776 62.2213 29.0303C62.2619 34.5712 60.9854 51.2545 45.5053 62.7407Z" fill="#FFAF1D"/>
</svg>
