<svg width="720" height="308" viewBox="0 0 720 308" fill="none" xmlns="http://www.w3.org/2000/svg">
<rect width="720" height="308" rx="16" fill="#1E212A"/>
<path d="M429.47 153.47C429.177 153.763 429.177 154.237 429.47 154.53L434.243 159.303C434.536 159.596 435.01 159.596 435.303 159.303C435.596 159.01 435.596 158.536 435.303 158.243L431.061 154L435.303 149.757C435.596 149.464 435.596 148.99 435.303 148.697C435.01 148.404 434.536 148.404 434.243 148.697L429.47 153.47ZM565 153.25L430 153.25L430 154.75L565 154.75L565 153.25Z" fill="#FB5B0D"/>
<rect x="298" y="111" width="124" height="86" rx="12" fill="#2B2E37"/>
<circle opacity="0.1" cx="360" cy="139" r="16" fill="#FB5B0D"/>
<circle cx="360" cy="139" r="13.893" fill="#020613"/>
<path d="M373.893 139C373.893 146.673 367.673 152.893 360 152.893C352.327 152.893 346.107 146.673 346.107 139C346.107 131.327 352.327 125.107 360 125.107C367.673 125.107 373.893 131.327 373.893 139Z" fill="#FBA77E" fill-opacity="0.3"/>
<path fill-rule="evenodd" clip-rule="evenodd" d="M360 152.366C367.382 152.366 373.366 146.382 373.366 139C373.366 131.618 367.382 125.634 360 125.634C352.618 125.634 346.634 131.618 346.634 139C346.634 146.382 352.618 152.366 360 152.366ZM360 152.893C367.673 152.893 373.893 146.673 373.893 139C373.893 131.327 367.673 125.107 360 125.107C352.327 125.107 346.107 131.327 346.107 139C346.107 146.673 352.327 152.893 360 152.893Z" fill="#FB5B0D"/>
<path d="M362.679 139H360C360.003 137.091 360.762 135.261 362.112 133.912C363.461 132.562 365.291 131.803 367.2 131.8V134.479C366.001 134.479 364.851 134.955 364.003 135.803C363.155 136.651 362.679 137.801 362.679 139Z" fill="#FB5B0D"/>
<path d="M360 146.2C358.09 146.2 356.259 145.441 354.909 144.091C353.559 142.741 352.8 140.91 352.8 139C352.8 137.09 353.559 135.259 354.909 133.909C356.259 132.559 358.09 131.8 360 131.8V134.479C359.106 134.479 358.232 134.744 357.488 135.241C356.745 135.738 356.165 136.444 355.823 137.27C355.481 138.096 355.392 139.005 355.566 139.882C355.74 140.759 356.171 141.565 356.803 142.197C357.436 142.829 358.241 143.26 359.118 143.434C359.995 143.608 360.904 143.519 361.73 143.177C362.556 142.835 363.262 142.255 363.759 141.512C364.256 140.768 364.521 139.894 364.521 139H367.2C367.198 140.909 366.439 142.739 365.089 144.089C363.739 145.438 361.909 146.198 360 146.2Z" fill="#FB5B0D"/>
<path d="M339.019 179.208C338.262 179.208 337.55 179.059 336.883 178.76C336.217 178.456 335.63 178.037 335.123 177.504C334.617 176.971 334.219 176.355 333.931 175.656C333.643 174.952 333.499 174.2 333.499 173.4C333.499 172.6 333.643 171.851 333.931 171.152C334.219 170.448 334.617 169.829 335.123 169.296C335.63 168.763 336.217 168.347 336.883 168.048C337.55 167.744 338.262 167.592 339.019 167.592C339.782 167.592 340.497 167.744 341.163 168.048C341.83 168.347 342.417 168.763 342.923 169.296C343.43 169.829 343.825 170.448 344.107 171.152C344.395 171.851 344.539 172.6 344.539 173.4C344.539 174.2 344.395 174.952 344.107 175.656C343.825 176.355 343.43 176.971 342.923 177.504C342.417 178.037 341.83 178.456 341.163 178.76C340.497 179.059 339.782 179.208 339.019 179.208ZM339.019 177.544C339.553 177.544 340.051 177.435 340.515 177.216C340.979 176.997 341.387 176.699 341.739 176.32C342.097 175.936 342.374 175.496 342.571 175C342.774 174.499 342.875 173.965 342.875 173.4C342.875 172.835 342.774 172.301 342.571 171.8C342.374 171.299 342.097 170.859 341.739 170.48C341.387 170.096 340.979 169.797 340.515 169.584C340.051 169.365 339.553 169.256 339.019 169.256C338.486 169.256 337.987 169.365 337.523 169.584C337.059 169.803 336.649 170.104 336.291 170.488C335.939 170.867 335.662 171.307 335.459 171.808C335.262 172.304 335.163 172.835 335.163 173.4C335.163 173.971 335.262 174.507 335.459 175.008C335.662 175.504 335.939 175.944 336.291 176.328C336.649 176.707 337.059 177.005 337.523 177.224C337.987 177.437 338.486 177.544 339.019 177.544ZM346.069 179V171H347.733V171.848C348.011 171.517 348.352 171.256 348.757 171.064C349.163 170.872 349.6 170.776 350.069 170.776C350.368 170.776 350.664 170.816 350.957 170.896L350.293 172.576C350.085 172.496 349.877 172.456 349.669 172.456C349.317 172.456 348.995 172.544 348.701 172.72C348.408 172.891 348.173 173.123 347.997 173.416C347.821 173.709 347.733 174.035 347.733 174.392V179H346.069ZM357.731 171H359.395V179H357.723L357.659 177.84C357.424 178.251 357.107 178.581 356.707 178.832C356.307 179.083 355.835 179.208 355.291 179.208C354.704 179.208 354.152 179.099 353.635 178.88C353.118 178.656 352.662 178.347 352.267 177.952C351.878 177.557 351.574 177.104 351.355 176.592C351.136 176.075 351.027 175.52 351.027 174.928C351.027 174.357 351.134 173.821 351.347 173.32C351.56 172.813 351.856 172.371 352.235 171.992C352.614 171.613 353.051 171.317 353.547 171.104C354.048 170.885 354.584 170.776 355.155 170.776C355.736 170.776 356.248 170.909 356.691 171.176C357.139 171.437 357.51 171.773 357.803 172.184L357.731 171ZM355.251 177.6C355.72 177.6 356.131 177.485 356.483 177.256C356.835 177.021 357.107 176.707 357.299 176.312C357.496 175.917 357.595 175.48 357.595 175C357.595 174.515 357.496 174.075 357.299 173.68C357.102 173.285 356.827 172.973 356.475 172.744C356.128 172.509 355.72 172.392 355.251 172.392C354.787 172.392 354.363 172.509 353.979 172.744C353.595 172.979 353.291 173.293 353.067 173.688C352.843 174.083 352.731 174.52 352.731 175C352.731 175.485 352.846 175.925 353.075 176.32C353.31 176.709 353.616 177.021 353.995 177.256C354.379 177.485 354.798 177.6 355.251 177.6ZM368.191 173.984V179H366.527V174.392C366.527 174.035 366.439 173.709 366.263 173.416C366.093 173.123 365.861 172.891 365.567 172.72C365.279 172.544 364.954 172.456 364.591 172.456C364.239 172.456 363.917 172.544 363.623 172.72C363.33 172.891 363.095 173.123 362.919 173.416C362.743 173.709 362.655 174.035 362.655 174.392V179H360.991V171H362.655V171.848C362.933 171.517 363.274 171.256 363.679 171.064C364.085 170.872 364.522 170.776 364.991 170.776C365.583 170.776 366.122 170.92 366.607 171.208C367.093 171.496 367.477 171.883 367.759 172.368C368.047 172.853 368.191 173.392 368.191 173.984ZM375.72 171H377.384V179.208C377.384 179.757 377.267 180.264 377.032 180.728C376.803 181.192 376.491 181.592 376.096 181.928C375.701 182.269 375.248 182.533 374.736 182.72C374.229 182.907 373.699 183 373.144 183C372.584 183 372.045 182.88 371.528 182.64C371.011 182.405 370.555 182.085 370.16 181.68C369.771 181.275 369.48 180.816 369.288 180.304L370.816 179.616C370.923 179.947 371.093 180.24 371.328 180.496C371.568 180.752 371.845 180.955 372.16 181.104C372.48 181.253 372.808 181.328 373.144 181.328C373.475 181.328 373.792 181.275 374.096 181.168C374.405 181.067 374.68 180.923 374.92 180.736C375.165 180.549 375.36 180.325 375.504 180.064C375.648 179.803 375.72 179.517 375.72 179.208V177.856C375.459 178.261 375.123 178.589 374.712 178.84C374.301 179.085 373.824 179.208 373.28 179.208C372.715 179.208 372.181 179.099 371.68 178.88C371.179 178.661 370.739 178.36 370.36 177.976C369.981 177.587 369.685 177.139 369.472 176.632C369.259 176.125 369.152 175.581 369.152 175C369.152 174.419 369.259 173.875 369.472 173.368C369.685 172.856 369.981 172.408 370.36 172.024C370.739 171.635 371.179 171.331 371.68 171.112C372.181 170.893 372.715 170.784 373.28 170.784C373.824 170.784 374.301 170.909 374.712 171.16C375.123 171.405 375.459 171.733 375.72 172.144V171ZM373.296 177.6C373.76 177.6 374.165 177.483 374.512 177.248C374.859 177.008 375.128 176.691 375.32 176.296C375.512 175.901 375.608 175.469 375.608 175C375.608 174.52 375.509 174.085 375.312 173.696C375.12 173.301 374.851 172.987 374.504 172.752C374.157 172.512 373.755 172.392 373.296 172.392C372.848 172.392 372.437 172.509 372.064 172.744C371.696 172.979 371.403 173.293 371.184 173.688C370.965 174.083 370.856 174.52 370.856 175C370.856 175.48 370.965 175.917 371.184 176.312C371.408 176.707 371.704 177.021 372.072 177.256C372.445 177.485 372.853 177.6 373.296 177.6ZM382.683 179.208C381.947 179.208 381.275 179.019 380.667 178.64C380.064 178.261 379.582 177.755 379.219 177.12C378.862 176.48 378.683 175.773 378.683 175C378.683 174.413 378.787 173.867 378.995 173.36C379.203 172.848 379.488 172.4 379.851 172.016C380.219 171.627 380.646 171.323 381.131 171.104C381.616 170.885 382.134 170.776 382.683 170.776C383.296 170.776 383.859 170.904 384.371 171.16C384.883 171.411 385.32 171.76 385.683 172.208C386.046 172.651 386.312 173.163 386.483 173.744C386.654 174.32 386.704 174.933 386.635 175.584H380.467C380.536 175.952 380.67 176.285 380.867 176.584C381.07 176.877 381.326 177.109 381.635 177.28C381.95 177.451 382.299 177.539 382.683 177.544C383.088 177.544 383.456 177.443 383.787 177.24C384.123 177.037 384.398 176.757 384.611 176.4L386.299 176.792C385.979 177.501 385.496 178.083 384.851 178.536C384.206 178.984 383.483 179.208 382.683 179.208ZM380.411 174.312H384.955C384.902 173.928 384.766 173.581 384.547 173.272C384.334 172.957 384.064 172.709 383.739 172.528C383.419 172.341 383.067 172.248 382.683 172.248C382.304 172.248 381.952 172.339 381.627 172.52C381.307 172.701 381.04 172.949 380.827 173.264C380.619 173.573 380.48 173.923 380.411 174.312Z" fill="white"/>
<rect x="580" y="240" width="73" height="36" rx="12" fill="#2B2E37"/>
<path d="M601.157 252.8H603.101L607.173 264H605.413L604.637 261.872H599.621L598.853 264H597.085L601.157 252.8ZM600.237 260.208H604.021L602.125 255.008L600.237 260.208ZM608.14 264L610.308 252.8H611.652L614.524 260.344L617.38 252.8H618.724L620.9 264H619.204L617.756 256.504L615.076 263.576H613.956L611.284 256.504L609.836 264H608.14ZM622.827 264L624.995 252.8H626.339L629.211 260.344L632.067 252.8H633.411L635.587 264H633.891L632.443 256.504L629.763 263.576H628.643L625.971 256.504L624.523 264H622.827Z" fill="white"/>
<rect x="40" y="111" width="84" height="86" rx="12" fill="#2B2E37"/>
<path d="M90 144.116C91.9412 145.091 93.6055 146.656 94.8203 148.613C95.0609 149 95.1812 149.194 95.2228 149.462C95.3073 150.008 94.9344 150.678 94.4266 150.894C94.1767 151 93.8956 151 93.3334 151M87.3334 138.376C89.309 137.395 90.6667 135.356 90.6667 133C90.6667 130.644 89.309 128.605 87.3334 127.624M84.6667 133C84.6667 136.314 81.9804 139 78.6667 139C75.353 139 72.6667 136.314 72.6667 133C72.6667 129.686 75.353 127 78.6667 127C81.9804 127 84.6667 129.686 84.6667 133ZM69.4123 148.251C71.5381 145.059 74.8925 143 78.6667 143C82.4409 143 85.7953 145.059 87.9211 148.251C88.3867 148.95 88.6196 149.3 88.5928 149.747C88.5719 150.094 88.344 150.52 88.0661 150.73C87.7093 151 87.2185 151 86.2369 151H71.0965C70.1149 151 69.6241 151 69.2673 150.73C68.9894 150.52 68.7615 150.094 68.7406 149.747C68.7138 149.3 68.9466 148.95 69.4123 148.251Z" stroke="white" stroke-width="2" stroke-linecap="round" stroke-linejoin="round"/>
<path d="M71.1889 179.208C70.2929 179.208 69.5115 178.989 68.8449 178.552C68.1835 178.115 67.6689 177.528 67.3009 176.792C66.9382 176.051 66.7569 175.229 66.7569 174.328V167.8H68.4209V174.328C68.4209 174.915 68.5275 175.453 68.7409 175.944C68.9595 176.429 69.2742 176.819 69.6849 177.112C70.1009 177.4 70.6022 177.544 71.1889 177.544C71.7915 177.544 72.2982 177.4 72.7089 177.112C73.1195 176.819 73.4289 176.429 73.6369 175.944C73.8502 175.453 73.9569 174.915 73.9569 174.328V167.8H75.6209V174.328C75.6209 175.005 75.5169 175.64 75.3089 176.232C75.1009 176.819 74.8022 177.336 74.4129 177.784C74.0235 178.232 73.5569 178.581 73.0129 178.832C72.4689 179.083 71.8609 179.208 71.1889 179.208ZM79.9381 179.152C79.5168 179.125 79.1061 179.04 78.7061 178.896C78.3061 178.752 77.9541 178.557 77.6501 178.312C77.3515 178.061 77.1275 177.768 76.9781 177.432L78.3941 176.824C78.4635 176.968 78.5835 177.109 78.7541 177.248C78.9301 177.387 79.1355 177.501 79.3701 177.592C79.6048 177.677 79.8501 177.72 80.1061 177.72C80.3568 177.72 80.5888 177.685 80.8021 177.616C81.0208 177.541 81.1995 177.429 81.3381 177.28C81.4768 177.131 81.5461 176.952 81.5461 176.744C81.5461 176.509 81.4661 176.328 81.3061 176.2C81.1515 176.067 80.9568 175.965 80.7221 175.896C80.4875 175.827 80.2528 175.76 80.0181 175.696C79.4955 175.579 79.0155 175.419 78.5781 175.216C78.1461 175.008 77.8021 174.744 77.5461 174.424C77.2901 174.099 77.1621 173.701 77.1621 173.232C77.1621 172.72 77.3008 172.277 77.5781 171.904C77.8555 171.525 78.2181 171.235 78.6661 171.032C79.1195 170.829 79.6021 170.728 80.1141 170.728C80.7541 170.728 81.3408 170.864 81.8741 171.136C82.4075 171.408 82.8155 171.781 83.0981 172.256L81.7781 173.04C81.6981 172.88 81.5781 172.736 81.4181 172.608C81.2581 172.48 81.0768 172.379 80.8741 172.304C80.6715 172.224 80.4608 172.179 80.2421 172.168C79.9701 172.157 79.7168 172.189 79.4821 172.264C79.2528 172.333 79.0688 172.445 78.9301 172.6C78.7915 172.755 78.7221 172.952 78.7221 173.192C78.7221 173.427 78.8048 173.603 78.9701 173.72C79.1355 173.832 79.3435 173.923 79.5941 173.992C79.8501 174.061 80.1115 174.139 80.3781 174.224C80.8528 174.373 81.2981 174.557 81.7141 174.776C82.1301 174.989 82.4661 175.253 82.7221 175.568C82.9781 175.883 83.1008 176.267 83.0901 176.72C83.0901 177.221 82.9381 177.661 82.6341 178.04C82.3355 178.419 81.9461 178.707 81.4661 178.904C80.9861 179.101 80.4768 179.184 79.9381 179.152ZM87.8706 179.208C87.1346 179.208 86.4626 179.019 85.8546 178.64C85.252 178.261 84.7693 177.755 84.4066 177.12C84.0493 176.48 83.8706 175.773 83.8706 175C83.8706 174.413 83.9746 173.867 84.1826 173.36C84.3906 172.848 84.676 172.4 85.0386 172.016C85.4066 171.627 85.8333 171.323 86.3186 171.104C86.804 170.885 87.3213 170.776 87.8706 170.776C88.484 170.776 89.0466 170.904 89.5586 171.16C90.0706 171.411 90.508 171.76 90.8706 172.208C91.2333 172.651 91.5 173.163 91.6706 173.744C91.8413 174.32 91.892 174.933 91.8226 175.584H85.6546C85.724 175.952 85.8573 176.285 86.0546 176.584C86.2573 176.877 86.5133 177.109 86.8226 177.28C87.1373 177.451 87.4866 177.539 87.8706 177.544C88.276 177.544 88.644 177.443 88.9746 177.24C89.3106 177.037 89.5853 176.757 89.7986 176.4L91.4866 176.792C91.1666 177.501 90.684 178.083 90.0386 178.536C89.3933 178.984 88.6706 179.208 87.8706 179.208ZM85.5986 174.312H90.1426C90.0893 173.928 89.9533 173.581 89.7346 173.272C89.5213 172.957 89.252 172.709 88.9266 172.528C88.6066 172.341 88.2546 172.248 87.8706 172.248C87.492 172.248 87.14 172.339 86.8146 172.52C86.4946 172.701 86.228 172.949 86.0146 173.264C85.8066 173.573 85.668 173.923 85.5986 174.312ZM93.1475 179V171H94.8115V171.848C95.0888 171.517 95.4302 171.256 95.8355 171.064C96.2408 170.872 96.6782 170.776 97.1475 170.776C97.4462 170.776 97.7422 170.816 98.0355 170.896L97.3715 172.576C97.1635 172.496 96.9555 172.456 96.7475 172.456C96.3955 172.456 96.0728 172.544 95.7795 172.72C95.4862 172.891 95.2515 173.123 95.0755 173.416C94.8995 173.709 94.8115 174.035 94.8115 174.392V179H93.1475Z" fill="white"/>
<rect width="101" height="40" transform="translate(447 134)" fill="#1E212A"/>
<path d="M464.324 149.182C463.788 149.182 463.272 149.098 462.777 148.93C462.283 148.762 461.851 148.522 461.482 148.209C461.114 147.892 460.85 147.516 460.691 147.082L462.056 146.571C462.136 146.795 462.287 146.996 462.511 147.173C462.74 147.346 463.011 147.481 463.323 147.579C463.641 147.677 463.974 147.726 464.324 147.726C464.698 147.726 465.048 147.665 465.374 147.544C465.706 147.423 465.972 147.255 466.172 147.04C466.378 146.825 466.48 146.573 466.48 146.284C466.48 145.985 466.373 145.74 466.158 145.549C465.948 145.358 465.678 145.206 465.346 145.094C465.02 144.982 464.679 144.898 464.324 144.842C463.638 144.73 463.022 144.567 462.476 144.352C461.935 144.137 461.506 143.836 461.188 143.449C460.876 143.062 460.719 142.558 460.719 141.937C460.719 141.354 460.885 140.845 461.216 140.411C461.552 139.977 461.993 139.641 462.539 139.403C463.09 139.16 463.685 139.039 464.324 139.039C464.852 139.039 465.36 139.123 465.85 139.291C466.345 139.454 466.779 139.695 467.152 140.012C467.53 140.325 467.801 140.705 467.964 141.153L466.585 141.65C466.506 141.421 466.354 141.223 466.13 141.055C465.906 140.882 465.636 140.747 465.318 140.649C465.006 140.551 464.674 140.502 464.324 140.502C463.951 140.497 463.601 140.558 463.274 140.684C462.952 140.805 462.689 140.973 462.483 141.188C462.278 141.403 462.175 141.652 462.175 141.937C462.175 142.287 462.271 142.553 462.462 142.735C462.654 142.917 462.91 143.052 463.232 143.141C463.559 143.225 463.923 143.302 464.324 143.372C464.968 143.475 465.563 143.645 466.109 143.883C466.66 144.121 467.101 144.438 467.432 144.835C467.768 145.227 467.936 145.71 467.936 146.284C467.936 146.863 467.768 147.371 467.432 147.81C467.101 148.244 466.66 148.582 466.109 148.825C465.563 149.063 464.968 149.182 464.324 149.182ZM472.654 149H471.205L468.86 142H470.288L471.94 146.914L473.578 142H475.048L476.686 146.914L478.331 142H479.759L477.421 149H475.958L474.306 144.051L472.654 149ZM486.019 142H487.475V149H486.012L485.956 147.985C485.751 148.344 485.473 148.634 485.123 148.853C484.773 149.072 484.36 149.182 483.884 149.182C483.371 149.182 482.888 149.086 482.435 148.895C481.983 148.699 481.584 148.428 481.238 148.083C480.898 147.738 480.632 147.341 480.44 146.893C480.249 146.44 480.153 145.955 480.153 145.437C480.153 144.938 480.247 144.469 480.433 144.03C480.62 143.587 480.879 143.199 481.21 142.868C481.542 142.537 481.924 142.278 482.358 142.091C482.797 141.9 483.266 141.804 483.765 141.804C484.274 141.804 484.722 141.921 485.109 142.154C485.501 142.383 485.826 142.677 486.082 143.036L486.019 142ZM483.849 147.775C484.26 147.775 484.619 147.675 484.927 147.474C485.235 147.269 485.473 146.993 485.641 146.648C485.814 146.303 485.9 145.92 485.9 145.5C485.9 145.075 485.814 144.69 485.641 144.345C485.469 144 485.228 143.727 484.92 143.526C484.617 143.321 484.26 143.218 483.849 143.218C483.443 143.218 483.072 143.321 482.736 143.526C482.4 143.731 482.134 144.007 481.938 144.352C481.742 144.697 481.644 145.08 481.644 145.5C481.644 145.925 481.745 146.31 481.945 146.655C482.151 146.996 482.419 147.269 482.75 147.474C483.086 147.675 483.453 147.775 483.849 147.775ZM490.328 152.5H488.872V142H490.328V143.029C490.562 142.67 490.86 142.378 491.224 142.154C491.588 141.93 492.018 141.818 492.512 141.818C493.021 141.818 493.497 141.914 493.94 142.105C494.388 142.296 494.78 142.562 495.116 142.903C495.452 143.239 495.716 143.629 495.907 144.072C496.099 144.515 496.194 144.991 496.194 145.5C496.194 146.009 496.099 146.487 495.907 146.935C495.716 147.383 495.452 147.777 495.116 148.118C494.78 148.454 494.388 148.718 493.94 148.909C493.497 149.1 493.021 149.196 492.512 149.196C492.018 149.196 491.588 149.084 491.224 148.86C490.86 148.631 490.562 148.34 490.328 147.985V152.5ZM492.498 143.225C492.092 143.225 491.735 143.328 491.427 143.533C491.119 143.738 490.879 144.014 490.706 144.359C490.534 144.7 490.447 145.08 490.447 145.5C490.447 145.92 490.534 146.303 490.706 146.648C490.879 146.993 491.119 147.269 491.427 147.474C491.735 147.679 492.092 147.782 492.498 147.782C492.9 147.782 493.268 147.682 493.604 147.481C493.94 147.276 494.209 147 494.409 146.655C494.61 146.31 494.71 145.925 494.71 145.5C494.71 145.085 494.61 144.704 494.409 144.359C494.213 144.014 493.947 143.738 493.611 143.533C493.275 143.328 492.904 143.225 492.498 143.225ZM500.821 149V139.2H506.596V140.656H502.277V143.022H505.924V144.478H502.277V149H500.821ZM510.081 149.182C509.437 149.182 508.849 149.016 508.317 148.685C507.79 148.354 507.367 147.91 507.05 147.355C506.737 146.795 506.581 146.177 506.581 145.5C506.581 144.987 506.672 144.508 506.854 144.065C507.036 143.617 507.286 143.225 507.603 142.889C507.925 142.548 508.298 142.282 508.723 142.091C509.148 141.9 509.6 141.804 510.081 141.804C510.618 141.804 511.11 141.916 511.558 142.14C512.006 142.359 512.389 142.665 512.706 143.057C513.023 143.444 513.257 143.892 513.406 144.401C513.555 144.905 513.6 145.442 513.539 146.011H508.142C508.203 146.333 508.319 146.625 508.492 146.886C508.669 147.143 508.893 147.346 509.164 147.495C509.439 147.644 509.745 147.721 510.081 147.726C510.436 147.726 510.758 147.637 511.047 147.46C511.341 147.283 511.581 147.038 511.768 146.725L513.245 147.068C512.965 147.689 512.543 148.197 511.978 148.594C511.413 148.986 510.781 149.182 510.081 149.182ZM508.093 144.898H512.069C512.022 144.562 511.903 144.259 511.712 143.988C511.525 143.713 511.29 143.496 511.005 143.337C510.725 143.174 510.417 143.092 510.081 143.092C509.75 143.092 509.442 143.171 509.157 143.33C508.877 143.489 508.644 143.706 508.457 143.981C508.275 144.252 508.154 144.557 508.093 144.898ZM517.765 149.182C517.121 149.182 516.533 149.016 516.001 148.685C515.473 148.354 515.051 147.91 514.734 147.355C514.421 146.795 514.265 146.177 514.265 145.5C514.265 144.987 514.356 144.508 514.538 144.065C514.72 143.617 514.969 143.225 515.287 142.889C515.609 142.548 515.982 142.282 516.407 142.091C516.831 141.9 517.284 141.804 517.765 141.804C518.301 141.804 518.794 141.916 519.242 142.14C519.69 142.359 520.072 142.665 520.39 143.057C520.707 143.444 520.94 143.892 521.09 144.401C521.239 144.905 521.283 145.442 521.223 146.011H515.826C515.886 146.333 516.003 146.625 516.176 146.886C516.353 147.143 516.577 147.346 516.848 147.495C517.123 147.644 517.429 147.721 517.765 147.726C518.119 147.726 518.441 147.637 518.731 147.46C519.025 147.283 519.265 147.038 519.452 146.725L520.929 147.068C520.649 147.689 520.226 148.197 519.662 148.594C519.097 148.986 518.465 149.182 517.765 149.182ZM515.777 144.898H519.753C519.706 144.562 519.587 144.259 519.396 143.988C519.209 143.713 518.973 143.496 518.689 143.337C518.409 143.174 518.101 143.092 517.765 143.092C517.433 143.092 517.125 143.171 516.841 143.33C516.561 143.489 516.327 143.706 516.141 143.981C515.959 144.252 515.837 144.557 515.777 144.898ZM528.542 149.182C527.973 149.182 527.464 149.044 527.016 148.769C526.573 148.494 526.223 148.132 525.966 147.684C525.714 147.231 525.588 146.744 525.588 146.221C525.588 145.922 525.616 145.661 525.672 145.437C525.733 145.213 525.833 144.994 525.973 144.779C526.118 144.564 526.314 144.324 526.561 144.058C526.813 143.792 527.131 143.468 527.513 143.085C527.299 142.866 527.119 142.674 526.974 142.511C526.83 142.348 526.715 142.196 526.631 142.056C526.547 141.911 526.487 141.762 526.449 141.608C526.417 141.454 526.4 141.279 526.4 141.083C526.4 140.672 526.498 140.306 526.694 139.984C526.89 139.657 527.152 139.401 527.478 139.214C527.805 139.023 528.16 138.927 528.542 138.927C528.934 138.927 529.294 139.025 529.62 139.221C529.947 139.412 530.206 139.671 530.397 139.998C530.593 140.32 530.691 140.682 530.691 141.083C530.691 141.284 530.673 141.463 530.635 141.622C530.598 141.776 530.535 141.925 530.446 142.07C530.362 142.215 530.248 142.369 530.103 142.532C529.959 142.691 529.781 142.875 529.571 143.085L531.685 145.199L533.372 143.512V145.57L532.707 146.235L534.45 147.971L533.421 149L531.685 147.271C531.298 147.658 530.969 147.976 530.698 148.223C530.432 148.47 530.192 148.664 529.977 148.804C529.763 148.944 529.543 149.042 529.319 149.098C529.1 149.154 528.841 149.182 528.542 149.182ZM528.542 147.726C528.729 147.726 528.888 147.705 529.018 147.663C529.154 147.616 529.291 147.539 529.431 147.432C529.571 147.32 529.735 147.168 529.921 146.977C530.113 146.781 530.358 146.531 530.656 146.228L528.542 144.114C528.234 144.422 527.982 144.674 527.786 144.87C527.59 145.061 527.439 145.225 527.331 145.36C527.229 145.495 527.156 145.631 527.114 145.766C527.072 145.897 527.051 146.053 527.051 146.235C527.051 146.52 527.119 146.774 527.254 146.998C527.394 147.222 527.576 147.399 527.8 147.53C528.029 147.661 528.276 147.726 528.542 147.726ZM528.542 142.259C528.78 142.021 528.96 141.844 529.081 141.727C529.207 141.606 529.291 141.501 529.333 141.412C529.38 141.319 529.403 141.2 529.403 141.055C529.403 140.798 529.312 140.593 529.13 140.439C528.953 140.28 528.757 140.201 528.542 140.201C528.309 140.201 528.108 140.285 527.94 140.453C527.772 140.621 527.688 140.822 527.688 141.055C527.688 141.2 527.712 141.321 527.758 141.419C527.81 141.512 527.896 141.62 528.017 141.741C528.143 141.862 528.318 142.035 528.542 142.259ZM452.352 169.182C451.689 169.182 451.066 169.051 450.483 168.79C449.9 168.524 449.386 168.158 448.943 167.691C448.5 167.224 448.152 166.685 447.9 166.074C447.648 165.458 447.522 164.8 447.522 164.1C447.522 163.4 447.648 162.744 447.9 162.133C448.152 161.517 448.5 160.976 448.943 160.509C449.386 160.042 449.9 159.678 450.483 159.417C451.066 159.151 451.689 159.018 452.352 159.018C453.019 159.018 453.645 159.151 454.228 159.417C454.811 159.678 455.325 160.042 455.768 160.509C456.211 160.976 456.557 161.517 456.804 162.133C457.056 162.744 457.182 163.4 457.182 164.1C457.182 164.8 457.056 165.458 456.804 166.074C456.557 166.685 456.211 167.224 455.768 167.691C455.325 168.158 454.811 168.524 454.228 168.79C453.645 169.051 453.019 169.182 452.352 169.182ZM452.352 167.726C452.819 167.726 453.255 167.63 453.661 167.439C454.067 167.248 454.424 166.986 454.732 166.655C455.045 166.319 455.287 165.934 455.46 165.5C455.637 165.061 455.726 164.595 455.726 164.1C455.726 163.605 455.637 163.139 455.46 162.7C455.287 162.261 455.045 161.876 454.732 161.545C454.424 161.209 454.067 160.948 453.661 160.761C453.255 160.57 452.819 160.474 452.352 160.474C451.885 160.474 451.449 160.57 451.043 160.761C450.637 160.952 450.278 161.216 449.965 161.552C449.657 161.883 449.414 162.268 449.237 162.707C449.064 163.141 448.978 163.605 448.978 164.1C448.978 164.599 449.064 165.068 449.237 165.507C449.414 165.941 449.657 166.326 449.965 166.662C450.278 166.993 450.637 167.255 451.043 167.446C451.449 167.633 451.885 167.726 452.352 167.726ZM460.031 172.5H458.575V162H460.031V163.029C460.265 162.67 460.563 162.378 460.927 162.154C461.291 161.93 461.721 161.818 462.215 161.818C462.724 161.818 463.2 161.914 463.643 162.105C464.091 162.296 464.483 162.562 464.819 162.903C465.155 163.239 465.419 163.629 465.61 164.072C465.802 164.515 465.897 164.991 465.897 165.5C465.897 166.009 465.802 166.487 465.61 166.935C465.419 167.383 465.155 167.777 464.819 168.118C464.483 168.454 464.091 168.718 463.643 168.909C463.2 169.1 462.724 169.196 462.215 169.196C461.721 169.196 461.291 169.084 460.927 168.86C460.563 168.631 460.265 168.34 460.031 167.985V172.5ZM462.201 163.225C461.795 163.225 461.438 163.328 461.13 163.533C460.822 163.738 460.582 164.014 460.409 164.359C460.237 164.7 460.15 165.08 460.15 165.5C460.15 165.92 460.237 166.303 460.409 166.648C460.582 166.993 460.822 167.269 461.13 167.474C461.438 167.679 461.795 167.782 462.201 167.782C462.603 167.782 462.971 167.682 463.307 167.481C463.643 167.276 463.912 167 464.112 166.655C464.313 166.31 464.413 165.925 464.413 165.5C464.413 165.085 464.313 164.704 464.112 164.359C463.916 164.014 463.65 163.738 463.314 163.533C462.978 163.328 462.607 163.225 462.201 163.225ZM470.693 163.456H469.223L469.216 169H467.76L467.767 163.456H466.654V162H467.767L467.76 159.802H469.216L469.223 162H470.693V163.456ZM471.851 162H473.307V169H471.851V162ZM472.593 160.985C472.369 160.985 472.182 160.913 472.033 160.768C471.883 160.623 471.809 160.441 471.809 160.222C471.809 160.007 471.883 159.828 472.033 159.683C472.182 159.534 472.366 159.459 472.586 159.459C472.8 159.459 472.982 159.534 473.132 159.683C473.281 159.828 473.356 160.007 473.356 160.222C473.356 160.441 473.281 160.623 473.132 160.768C472.987 160.913 472.807 160.985 472.593 160.985ZM477.939 169.182C477.295 169.182 476.707 169.016 476.175 168.685C475.647 168.354 475.225 167.91 474.908 167.355C474.595 166.795 474.439 166.177 474.439 165.5C474.439 164.987 474.53 164.508 474.712 164.065C474.894 163.617 475.143 163.225 475.461 162.889C475.783 162.548 476.156 162.282 476.581 162.091C477.005 161.9 477.458 161.804 477.939 161.804C478.583 161.804 479.168 161.97 479.696 162.301C480.228 162.632 480.65 163.078 480.963 163.638C481.28 164.198 481.439 164.819 481.439 165.5C481.439 166.009 481.348 166.485 481.166 166.928C480.984 167.371 480.732 167.763 480.41 168.104C480.092 168.44 479.721 168.704 479.297 168.895C478.877 169.086 478.424 169.182 477.939 169.182ZM477.939 167.726C478.326 167.726 478.674 167.623 478.982 167.418C479.29 167.213 479.532 166.942 479.71 166.606C479.892 166.265 479.983 165.897 479.983 165.5C479.983 165.094 479.889 164.721 479.703 164.38C479.521 164.039 479.276 163.769 478.968 163.568C478.66 163.363 478.317 163.26 477.939 163.26C477.556 163.26 477.208 163.363 476.896 163.568C476.588 163.773 476.343 164.046 476.161 164.387C475.983 164.728 475.895 165.099 475.895 165.5C475.895 165.915 475.988 166.291 476.175 166.627C476.361 166.963 476.609 167.231 476.917 167.432C477.229 167.628 477.57 167.726 477.939 167.726ZM488.869 164.611V169H487.413V164.968C487.413 164.655 487.336 164.371 487.182 164.114C487.033 163.857 486.83 163.654 486.573 163.505C486.321 163.351 486.037 163.274 485.719 163.274C485.411 163.274 485.129 163.351 484.872 163.505C484.616 163.654 484.41 163.857 484.256 164.114C484.102 164.371 484.025 164.655 484.025 164.968V169H482.569V162H484.025V162.742C484.268 162.453 484.567 162.224 484.921 162.056C485.276 161.888 485.659 161.804 486.069 161.804C486.587 161.804 487.059 161.93 487.483 162.182C487.908 162.434 488.244 162.772 488.491 163.197C488.743 163.622 488.869 164.093 488.869 164.611ZM493.63 169V159.2H497.004C497.531 159.2 498.007 159.331 498.432 159.592C498.861 159.853 499.202 160.206 499.454 160.649C499.711 161.092 499.839 161.582 499.839 162.119C499.839 162.665 499.708 163.16 499.447 163.603C499.19 164.042 498.847 164.392 498.418 164.653C497.989 164.914 497.517 165.045 497.004 165.045H495.086V169H493.63ZM495.086 163.589H496.857C497.137 163.589 497.391 163.519 497.62 163.379C497.853 163.239 498.038 163.052 498.173 162.819C498.313 162.586 498.383 162.322 498.383 162.028C498.383 161.734 498.313 161.47 498.173 161.237C498.038 160.999 497.853 160.812 497.62 160.677C497.391 160.537 497.137 160.467 496.857 160.467H495.086V163.589ZM500.986 169V162H502.442V162.742C502.684 162.453 502.983 162.224 503.338 162.056C503.692 161.888 504.075 161.804 504.486 161.804C504.747 161.804 505.006 161.839 505.263 161.909L504.682 163.379C504.5 163.309 504.318 163.274 504.136 163.274C503.828 163.274 503.545 163.351 503.289 163.505C503.032 163.654 502.827 163.857 502.673 164.114C502.519 164.371 502.442 164.655 502.442 164.968V169H500.986ZM508.823 169.182C508.179 169.182 507.591 169.016 507.059 168.685C506.532 168.354 506.11 167.91 505.792 167.355C505.48 166.795 505.323 166.177 505.323 165.5C505.323 164.987 505.414 164.508 505.596 164.065C505.778 163.617 506.028 163.225 506.345 162.889C506.667 162.548 507.041 162.282 507.465 162.091C507.89 161.9 508.343 161.804 508.823 161.804C509.36 161.804 509.852 161.916 510.3 162.14C510.748 162.359 511.131 162.665 511.448 163.057C511.766 163.444 511.999 163.892 512.148 164.401C512.298 164.905 512.342 165.442 512.281 166.011H506.884C506.945 166.333 507.062 166.625 507.234 166.886C507.412 167.143 507.636 167.346 507.906 167.495C508.182 167.644 508.487 167.721 508.823 167.726C509.178 167.726 509.5 167.637 509.789 167.46C510.083 167.283 510.324 167.038 510.51 166.725L511.987 167.068C511.707 167.689 511.285 168.197 510.72 168.594C510.156 168.986 509.523 169.182 508.823 169.182ZM506.835 164.898H510.811C510.765 164.562 510.646 164.259 510.454 163.988C510.268 163.713 510.032 163.496 509.747 163.337C509.467 163.174 509.159 163.092 508.823 163.092C508.492 163.092 508.184 163.171 507.899 163.33C507.619 163.489 507.386 163.706 507.199 163.981C507.017 164.252 506.896 164.557 506.835 164.898ZM513.441 169V162H514.897V162.742C515.139 162.453 515.436 162.224 515.786 162.056C516.14 161.888 516.523 161.804 516.934 161.804C517.433 161.804 517.893 161.925 518.313 162.168C518.733 162.406 519.066 162.723 519.314 163.12C519.561 162.723 519.89 162.406 520.301 162.168C520.716 161.925 521.173 161.804 521.673 161.804C522.191 161.804 522.662 161.93 523.087 162.182C523.511 162.434 523.85 162.772 524.102 163.197C524.354 163.622 524.48 164.093 524.48 164.611V169H523.024V164.982C523.024 164.674 522.949 164.392 522.8 164.135C522.65 163.878 522.45 163.671 522.198 163.512C521.946 163.353 521.666 163.274 521.358 163.274C521.05 163.274 520.77 163.349 520.518 163.498C520.266 163.647 520.065 163.85 519.916 164.107C519.766 164.364 519.692 164.655 519.692 164.982V169H518.236V164.982C518.236 164.655 518.161 164.364 518.012 164.107C517.862 163.85 517.659 163.647 517.403 163.498C517.151 163.349 516.871 163.274 516.563 163.274C516.259 163.274 515.979 163.353 515.723 163.512C515.471 163.671 515.27 163.878 515.121 164.135C514.971 164.392 514.897 164.674 514.897 164.982V169H513.441ZM525.882 162H527.338V169H525.882V162ZM526.624 160.985C526.4 160.985 526.213 160.913 526.064 160.768C525.915 160.623 525.84 160.441 525.84 160.222C525.84 160.007 525.915 159.828 526.064 159.683C526.213 159.534 526.398 159.459 526.617 159.459C526.832 159.459 527.014 159.534 527.163 159.683C527.312 159.828 527.387 160.007 527.387 160.222C527.387 160.441 527.312 160.623 527.163 160.768C527.018 160.913 526.839 160.985 526.624 160.985ZM528.733 166.375V162H530.189V166.018C530.189 166.331 530.266 166.615 530.42 166.872C530.574 167.129 530.779 167.334 531.036 167.488C531.293 167.637 531.575 167.712 531.883 167.712C532.196 167.712 532.478 167.637 532.73 167.488C532.987 167.334 533.19 167.129 533.339 166.872C533.493 166.615 533.57 166.331 533.57 166.018V162H535.026L535.033 169H533.577L533.57 168.244C533.332 168.533 533.036 168.762 532.681 168.93C532.326 169.098 531.946 169.182 531.54 169.182C531.022 169.182 530.551 169.056 530.126 168.804C529.701 168.552 529.363 168.214 529.111 167.789C528.859 167.364 528.733 166.893 528.733 166.375ZM536.437 169V162H537.893V162.742C538.135 162.453 538.432 162.224 538.782 162.056C539.136 161.888 539.519 161.804 539.93 161.804C540.429 161.804 540.889 161.925 541.309 162.168C541.729 162.406 542.062 162.723 542.31 163.12C542.557 162.723 542.886 162.406 543.297 162.168C543.712 161.925 544.169 161.804 544.669 161.804C545.187 161.804 545.658 161.93 546.083 162.182C546.507 162.434 546.846 162.772 547.098 163.197C547.35 163.622 547.476 164.093 547.476 164.611V169H546.02V164.982C546.02 164.674 545.945 164.392 545.796 164.135C545.646 163.878 545.446 163.671 545.194 163.512C544.942 163.353 544.662 163.274 544.354 163.274C544.046 163.274 543.766 163.349 543.514 163.498C543.262 163.647 543.061 163.85 542.912 164.107C542.762 164.364 542.688 164.655 542.688 164.982V169H541.232V164.982C541.232 164.655 541.157 164.364 541.008 164.107C540.858 163.85 540.655 163.647 540.399 163.498C540.147 163.349 539.867 163.274 539.559 163.274C539.255 163.274 538.975 163.353 538.719 163.512C538.467 163.671 538.266 163.878 538.117 164.135C537.967 164.392 537.893 164.674 537.893 164.982V169H536.437Z" fill="white"/>
<path d="M615.97 124.53C616.263 124.823 616.737 124.823 617.03 124.53L621.803 119.757C622.096 119.464 622.096 118.99 621.803 118.697C621.51 118.404 621.036 118.404 620.743 118.697L616.5 122.939L612.257 118.697C611.964 118.404 611.49 118.404 611.197 118.697C610.904 118.99 610.904 119.464 611.197 119.757L615.97 124.53ZM352.75 111V48.5H351.25V111H352.75ZM364 37.25H604.5V35.75H364V37.25ZM615.75 48.5V124H617.25V48.5H615.75ZM604.5 37.25C610.713 37.25 615.75 42.2868 615.75 48.5H617.25C617.25 41.4584 611.542 35.75 604.5 35.75V37.25ZM352.75 48.5C352.75 42.2868 357.787 37.25 364 37.25V35.75C356.958 35.75 351.25 41.4584 351.25 48.5H352.75Z" fill="#5F636F"/>
<rect width="69" height="24" transform="translate(447 24)" fill="#1E212A"/>
<path d="M452.023 42V30.8H453.687V40.336H458.511V42H452.023ZM460.273 34H461.937V42H460.273V34ZM461.121 32.84C460.865 32.84 460.651 32.7573 460.481 32.592C460.31 32.4267 460.225 32.2187 460.225 31.968C460.225 31.7227 460.31 31.5173 460.481 31.352C460.651 31.1813 460.862 31.096 461.113 31.096C461.358 31.096 461.566 31.1813 461.737 31.352C461.907 31.5173 461.993 31.7227 461.993 31.968C461.993 32.2187 461.907 32.4267 461.737 32.592C461.571 32.7573 461.366 32.84 461.121 32.84ZM467.438 42.224C466.665 42.224 465.958 42.0347 465.318 41.656C464.683 41.2773 464.177 40.768 463.798 40.128C463.419 39.488 463.23 38.7787 463.23 38C463.23 37.4187 463.339 36.8747 463.558 36.368C463.777 35.8613 464.078 35.416 464.462 35.032C464.851 34.6427 465.299 34.3387 465.806 34.12C466.313 33.9013 466.857 33.792 467.438 33.792C468.003 33.792 468.494 33.92 468.91 34.176C469.326 34.432 469.667 34.7653 469.934 35.176V34H471.598V46H469.934V40.84C469.667 41.2453 469.326 41.5787 468.91 41.84C468.494 42.096 468.003 42.224 467.438 42.224ZM467.454 35.4C466.99 35.4 466.566 35.5173 466.182 35.752C465.798 35.9867 465.494 36.3013 465.27 36.696C465.046 37.0907 464.934 37.5253 464.934 38C464.934 38.4853 465.049 38.9253 465.278 39.32C465.507 39.7147 465.811 40.0293 466.19 40.264C466.574 40.4933 466.995 40.608 467.454 40.608C467.923 40.608 468.334 40.4907 468.686 40.256C469.038 40.0213 469.31 39.7067 469.502 39.312C469.694 38.9173 469.79 38.48 469.79 38C469.79 37.52 469.691 37.0853 469.494 36.696C469.302 36.3013 469.03 35.9867 468.678 35.752C468.331 35.5173 467.923 35.4 467.454 35.4ZM472.999 39V34H474.663V38.592C474.663 38.9493 474.751 39.2747 474.927 39.568C475.103 39.8613 475.338 40.096 475.631 40.272C475.925 40.4427 476.247 40.528 476.599 40.528C476.957 40.528 477.279 40.4427 477.567 40.272C477.861 40.096 478.093 39.8613 478.263 39.568C478.439 39.2747 478.527 38.9493 478.527 38.592V34H480.191L480.199 42H478.535L478.527 41.136C478.255 41.4667 477.917 41.728 477.511 41.92C477.106 42.112 476.671 42.208 476.207 42.208C475.615 42.208 475.077 42.064 474.591 41.776C474.106 41.488 473.719 41.1013 473.431 40.616C473.143 40.1307 472.999 39.592 472.999 39ZM481.804 34H483.468V42H481.804V34ZM482.652 32.84C482.396 32.84 482.182 32.7573 482.012 32.592C481.841 32.4267 481.756 32.2187 481.756 31.968C481.756 31.7227 481.841 31.5173 482.012 31.352C482.182 31.1813 482.393 31.096 482.644 31.096C482.889 31.096 483.097 31.1813 483.268 31.352C483.438 31.5173 483.524 31.7227 483.524 31.968C483.524 32.2187 483.438 32.4267 483.268 32.592C483.102 32.7573 482.897 32.84 482.652 32.84ZM491.473 30H493.137V42H491.473V40.824C491.212 41.24 490.871 41.576 490.449 41.832C490.028 42.0827 489.535 42.208 488.969 42.208C488.388 42.208 487.844 42.0987 487.337 41.88C486.831 41.6613 486.383 41.36 485.993 40.976C485.609 40.5867 485.308 40.1387 485.089 39.632C484.871 39.1253 484.761 38.5813 484.761 38C484.761 37.4187 484.871 36.8747 485.089 36.368C485.308 35.856 485.609 35.408 485.993 35.024C486.383 34.6347 486.831 34.3307 487.337 34.112C487.844 33.8933 488.388 33.784 488.969 33.784C489.535 33.784 490.028 33.912 490.449 34.168C490.871 34.4187 491.212 34.7493 491.473 35.16V30ZM488.985 40.6C489.455 40.6 489.865 40.4853 490.217 40.256C490.569 40.0213 490.841 39.7067 491.033 39.312C491.231 38.9173 491.329 38.48 491.329 38C491.329 37.5147 491.231 37.0747 491.033 36.68C490.836 36.2853 490.561 35.9733 490.209 35.744C489.863 35.5093 489.455 35.392 488.985 35.392C488.521 35.392 488.097 35.5093 487.713 35.744C487.335 35.9787 487.031 36.2933 486.801 36.688C486.577 37.0827 486.465 37.52 486.465 38C486.465 38.4853 486.58 38.9253 486.809 39.32C487.044 39.7093 487.351 40.0213 487.729 40.256C488.113 40.4853 488.532 40.6 488.985 40.6ZM495.054 34H496.718V42H495.054V34ZM495.902 32.84C495.646 32.84 495.432 32.7573 495.262 32.592C495.091 32.4267 495.006 32.2187 495.006 31.968C495.006 31.7227 495.091 31.5173 495.262 31.352C495.432 31.1813 495.643 31.096 495.894 31.096C496.139 31.096 496.347 31.1813 496.518 31.352C496.688 31.5173 496.774 31.7227 496.774 31.968C496.774 32.2187 496.688 32.4267 496.518 32.592C496.352 32.7573 496.147 32.84 495.902 32.84ZM502.856 35.664H501.176L501.168 42H499.504L499.512 35.664H498.24V34H499.512L499.504 31.488H501.168L501.176 34H502.856V35.664ZM509.518 34H511.294L506.91 46H505.142L506.59 42L503.718 34H505.534L507.422 39.72L509.518 34Z" fill="white"/>
<path d="M131.47 172.47C131.177 172.763 131.177 173.237 131.47 173.53L136.243 178.303C136.536 178.596 137.01 178.596 137.303 178.303C137.596 178.01 137.596 177.536 137.303 177.243L133.061 173L137.303 168.757C137.596 168.464 137.596 167.99 137.303 167.697C137.01 167.404 136.536 167.404 136.243 167.697L131.47 172.47ZM132 173.75H298V172.25H132V173.75Z" fill="#FB5B0D"/>
<path d="M290.53 135.53C290.823 135.237 290.823 134.763 290.53 134.47L285.757 129.697C285.464 129.404 284.99 129.404 284.697 129.697C284.404 129.99 284.404 130.464 284.697 130.757L288.939 135L284.697 139.243C284.404 139.536 284.404 140.01 284.697 140.303C284.99 140.596 285.464 140.596 285.757 140.303L290.53 135.53ZM124 135.75L290 135.75L290 134.25L124 134.25L124 135.75Z" fill="#5F636F"/>
<rect width="62" height="24" transform="translate(180 123)" fill="#1E212A"/>
<path d="M185.03 141V129.8H188.734C189.508 129.8 190.233 129.947 190.91 130.24C191.588 130.528 192.182 130.931 192.694 131.448C193.206 131.96 193.606 132.555 193.894 133.232C194.188 133.904 194.334 134.627 194.334 135.4C194.334 136.173 194.188 136.899 193.894 137.576C193.606 138.248 193.206 138.843 192.694 139.36C192.182 139.872 191.588 140.275 190.91 140.568C190.233 140.856 189.508 141 188.734 141H185.03ZM186.694 139.336H188.734C189.278 139.336 189.785 139.235 190.254 139.032C190.729 138.829 191.148 138.547 191.51 138.184C191.878 137.821 192.164 137.403 192.366 136.928C192.569 136.453 192.67 135.944 192.67 135.4C192.67 134.856 192.569 134.347 192.366 133.872C192.164 133.397 191.878 132.979 191.51 132.616C191.148 132.253 190.729 131.971 190.254 131.768C189.785 131.565 189.278 131.464 188.734 131.464H186.694V139.336ZM199.097 141.208C198.361 141.208 197.689 141.019 197.081 140.64C196.479 140.261 195.996 139.755 195.633 139.12C195.276 138.48 195.097 137.773 195.097 137C195.097 136.413 195.201 135.867 195.409 135.36C195.617 134.848 195.903 134.4 196.265 134.016C196.633 133.627 197.06 133.323 197.545 133.104C198.031 132.885 198.548 132.776 199.097 132.776C199.711 132.776 200.273 132.904 200.785 133.16C201.297 133.411 201.735 133.76 202.097 134.208C202.46 134.651 202.727 135.163 202.897 135.744C203.068 136.32 203.119 136.933 203.049 137.584H196.881C196.951 137.952 197.084 138.285 197.281 138.584C197.484 138.877 197.74 139.109 198.049 139.28C198.364 139.451 198.713 139.539 199.097 139.544C199.503 139.544 199.871 139.443 200.201 139.24C200.537 139.037 200.812 138.757 201.025 138.4L202.713 138.792C202.393 139.501 201.911 140.083 201.265 140.536C200.62 140.984 199.897 141.208 199.097 141.208ZM196.825 136.312H201.369C201.316 135.928 201.18 135.581 200.961 135.272C200.748 134.957 200.479 134.709 200.153 134.528C199.833 134.341 199.481 134.248 199.097 134.248C198.719 134.248 198.367 134.339 198.041 134.52C197.721 134.701 197.455 134.949 197.241 135.264C197.033 135.573 196.895 135.923 196.825 136.312ZM206.038 145H204.374V133H206.038V134.176C206.305 133.765 206.646 133.432 207.062 133.176C207.478 132.92 207.969 132.792 208.534 132.792C209.115 132.792 209.659 132.901 210.166 133.12C210.678 133.339 211.126 133.643 211.51 134.032C211.894 134.416 212.195 134.861 212.414 135.368C212.633 135.875 212.742 136.419 212.742 137C212.742 137.581 212.633 138.128 212.414 138.64C212.195 139.152 211.894 139.603 211.51 139.992C211.126 140.376 210.678 140.677 210.166 140.896C209.659 141.115 209.115 141.224 208.534 141.224C207.969 141.224 207.478 141.096 207.062 140.84C206.646 140.579 206.305 140.245 206.038 139.84V145ZM208.518 134.4C208.054 134.4 207.646 134.517 207.294 134.752C206.942 134.987 206.667 135.301 206.47 135.696C206.273 136.085 206.174 136.52 206.174 137C206.174 137.48 206.273 137.917 206.47 138.312C206.667 138.707 206.942 139.021 207.294 139.256C207.646 139.491 208.054 139.608 208.518 139.608C208.977 139.608 209.398 139.493 209.782 139.264C210.166 139.029 210.473 138.715 210.702 138.32C210.931 137.925 211.046 137.485 211.046 137C211.046 136.525 210.931 136.091 210.702 135.696C210.478 135.301 210.174 134.987 209.79 134.752C209.406 134.517 208.982 134.4 208.518 134.4ZM217.55 141.208C216.814 141.208 216.142 141.019 215.534 140.64C214.932 140.261 214.449 139.755 214.086 139.12C213.729 138.48 213.55 137.773 213.55 137C213.55 136.413 213.654 135.867 213.862 135.36C214.07 134.848 214.356 134.4 214.718 134.016C215.086 133.627 215.513 133.323 215.998 133.104C216.484 132.885 217.001 132.776 217.55 132.776C218.286 132.776 218.956 132.965 219.558 133.344C220.166 133.723 220.649 134.232 221.006 134.872C221.369 135.512 221.55 136.221 221.55 137C221.55 137.581 221.446 138.125 221.238 138.632C221.03 139.139 220.742 139.587 220.374 139.976C220.012 140.36 219.588 140.661 219.102 140.88C218.622 141.099 218.105 141.208 217.55 141.208ZM217.55 139.544C217.993 139.544 218.39 139.427 218.742 139.192C219.094 138.957 219.372 138.648 219.574 138.264C219.782 137.875 219.886 137.453 219.886 137C219.886 136.536 219.78 136.109 219.566 135.72C219.358 135.331 219.078 135.021 218.726 134.792C218.374 134.557 217.982 134.44 217.55 134.44C217.113 134.44 216.716 134.557 216.358 134.792C216.006 135.027 215.726 135.339 215.518 135.728C215.316 136.117 215.214 136.541 215.214 137C215.214 137.475 215.321 137.904 215.534 138.288C215.748 138.672 216.03 138.979 216.382 139.208C216.74 139.432 217.129 139.544 217.55 139.544ZM225.274 141.152C224.853 141.125 224.442 141.04 224.042 140.896C223.642 140.752 223.29 140.557 222.986 140.312C222.687 140.061 222.463 139.768 222.314 139.432L223.73 138.824C223.799 138.968 223.919 139.109 224.09 139.248C224.266 139.387 224.471 139.501 224.706 139.592C224.941 139.677 225.186 139.72 225.442 139.72C225.693 139.72 225.925 139.685 226.138 139.616C226.357 139.541 226.535 139.429 226.674 139.28C226.813 139.131 226.882 138.952 226.882 138.744C226.882 138.509 226.802 138.328 226.642 138.2C226.487 138.067 226.293 137.965 226.058 137.896C225.823 137.827 225.589 137.76 225.354 137.696C224.831 137.579 224.351 137.419 223.914 137.216C223.482 137.008 223.138 136.744 222.882 136.424C222.626 136.099 222.498 135.701 222.498 135.232C222.498 134.72 222.637 134.277 222.914 133.904C223.191 133.525 223.554 133.235 224.002 133.032C224.455 132.829 224.938 132.728 225.45 132.728C226.09 132.728 226.677 132.864 227.21 133.136C227.743 133.408 228.151 133.781 228.434 134.256L227.114 135.04C227.034 134.88 226.914 134.736 226.754 134.608C226.594 134.48 226.413 134.379 226.21 134.304C226.007 134.224 225.797 134.179 225.578 134.168C225.306 134.157 225.053 134.189 224.818 134.264C224.589 134.333 224.405 134.445 224.266 134.6C224.127 134.755 224.058 134.952 224.058 135.192C224.058 135.427 224.141 135.603 224.306 135.72C224.471 135.832 224.679 135.923 224.93 135.992C225.186 136.061 225.447 136.139 225.714 136.224C226.189 136.373 226.634 136.557 227.05 136.776C227.466 136.989 227.802 137.253 228.058 137.568C228.314 137.883 228.437 138.267 228.426 138.72C228.426 139.221 228.274 139.661 227.97 140.04C227.671 140.419 227.282 140.707 226.802 140.904C226.322 141.101 225.813 141.184 225.274 141.152ZM229.655 133H231.319V141H229.655V133ZM230.503 131.84C230.247 131.84 230.034 131.757 229.863 131.592C229.693 131.427 229.607 131.219 229.607 130.968C229.607 130.723 229.693 130.517 229.863 130.352C230.034 130.181 230.245 130.096 230.495 130.096C230.741 130.096 230.949 130.181 231.119 130.352C231.29 130.517 231.375 130.723 231.375 130.968C231.375 131.219 231.29 131.427 231.119 131.592C230.954 131.757 230.749 131.84 230.503 131.84ZM237.457 134.664H235.777L235.769 141H234.105L234.113 134.664H232.841V133H234.113L234.105 130.488H235.769L235.777 133H237.457V134.664Z" fill="white"/>
<rect width="78" height="24" transform="translate(172 161)" fill="#1E212A"/>
<path d="M179.651 179L176.787 167.8H178.499L180.595 176.016L182.683 167.8H184.195L186.291 176.016L188.387 167.8H190.099L187.251 179H185.339L183.443 171.584L181.547 179H179.651ZM190.999 171H192.663V179H190.999V171ZM191.847 169.84C191.591 169.84 191.378 169.757 191.207 169.592C191.036 169.427 190.951 169.219 190.951 168.968C190.951 168.723 191.036 168.517 191.207 168.352C191.378 168.181 191.588 168.096 191.839 168.096C192.084 168.096 192.292 168.181 192.463 168.352C192.634 168.517 192.719 168.723 192.719 168.968C192.719 169.219 192.634 169.427 192.463 169.592C192.298 169.757 192.092 169.84 191.847 169.84ZM198.801 172.664H197.121L197.113 179H195.449L195.457 172.664H194.185V171H195.457L195.449 168.488H197.113L197.121 171H198.801V172.664ZM207.433 173.984V179H205.769V174.392C205.769 174.035 205.681 173.709 205.505 173.416C205.335 173.123 205.103 172.891 204.809 172.72C204.521 172.544 204.196 172.456 203.833 172.456C203.481 172.456 203.159 172.544 202.865 172.72C202.572 172.891 202.337 173.123 202.161 173.416C201.985 173.709 201.897 174.035 201.897 174.392V179H200.233V167H201.897V171.848C202.175 171.517 202.516 171.256 202.921 171.064C203.327 170.872 203.764 170.776 204.233 170.776C204.825 170.776 205.364 170.92 205.849 171.208C206.335 171.496 206.719 171.883 207.001 172.368C207.289 172.853 207.433 173.392 207.433 173.984ZM215.106 167H216.77V179H215.106V177.824C214.845 178.24 214.503 178.576 214.082 178.832C213.661 179.083 213.167 179.208 212.602 179.208C212.021 179.208 211.477 179.099 210.97 178.88C210.463 178.661 210.015 178.36 209.626 177.976C209.242 177.587 208.941 177.139 208.722 176.632C208.503 176.125 208.394 175.581 208.394 175C208.394 174.419 208.503 173.875 208.722 173.368C208.941 172.856 209.242 172.408 209.626 172.024C210.015 171.635 210.463 171.331 210.97 171.112C211.477 170.893 212.021 170.784 212.602 170.784C213.167 170.784 213.661 170.912 214.082 171.168C214.503 171.419 214.845 171.749 215.106 172.16V167ZM212.618 177.6C213.087 177.6 213.498 177.485 213.85 177.256C214.202 177.021 214.474 176.707 214.666 176.312C214.863 175.917 214.962 175.48 214.962 175C214.962 174.515 214.863 174.075 214.666 173.68C214.469 173.285 214.194 172.973 213.842 172.744C213.495 172.509 213.087 172.392 212.618 172.392C212.154 172.392 211.73 172.509 211.346 172.744C210.967 172.979 210.663 173.293 210.434 173.688C210.21 174.083 210.098 174.52 210.098 175C210.098 175.485 210.213 175.925 210.442 176.32C210.677 176.709 210.983 177.021 211.362 177.256C211.746 177.485 212.165 177.6 212.618 177.6ZM218.687 179V171H220.351V171.848C220.628 171.517 220.969 171.256 221.375 171.064C221.78 170.872 222.217 170.776 222.687 170.776C222.985 170.776 223.281 170.816 223.575 170.896L222.911 172.576C222.703 172.496 222.495 172.456 222.287 172.456C221.935 172.456 221.612 172.544 221.319 172.72C221.025 172.891 220.791 173.123 220.615 173.416C220.439 173.709 220.351 174.035 220.351 174.392V179H218.687ZM230.348 171H232.012V179H230.34L230.276 177.84C230.041 178.251 229.724 178.581 229.324 178.832C228.924 179.083 228.452 179.208 227.908 179.208C227.321 179.208 226.769 179.099 226.252 178.88C225.735 178.656 225.279 178.347 224.884 177.952C224.495 177.557 224.191 177.104 223.972 176.592C223.753 176.075 223.644 175.52 223.644 174.928C223.644 174.357 223.751 173.821 223.964 173.32C224.177 172.813 224.473 172.371 224.852 171.992C225.231 171.613 225.668 171.317 226.164 171.104C226.665 170.885 227.201 170.776 227.772 170.776C228.353 170.776 228.865 170.909 229.308 171.176C229.756 171.437 230.127 171.773 230.42 172.184L230.348 171ZM227.868 177.6C228.337 177.6 228.748 177.485 229.1 177.256C229.452 177.021 229.724 176.707 229.916 176.312C230.113 175.917 230.212 175.48 230.212 175C230.212 174.515 230.113 174.075 229.916 173.68C229.719 173.285 229.444 172.973 229.092 172.744C228.745 172.509 228.337 172.392 227.868 172.392C227.404 172.392 226.98 172.509 226.596 172.744C226.212 172.979 225.908 173.293 225.684 173.688C225.46 174.083 225.348 174.52 225.348 175C225.348 175.485 225.463 175.925 225.692 176.32C225.927 176.709 226.233 177.021 226.612 177.256C226.996 177.485 227.415 177.6 227.868 177.6ZM237.168 179H235.512L232.832 171H234.464L236.352 176.616L238.224 171H239.904L241.776 176.616L243.656 171H245.288L242.616 179H240.944L239.056 173.344L237.168 179Z" fill="white"/>
<rect x="565" y="132" width="103" height="44" rx="12" fill="#2B2E37"/>
<circle opacity="0.1" cx="589" cy="154" r="16" fill="#EBFF00"/>
<circle cx="589" cy="154" r="13.893" fill="#020613"/>
<path d="M602.893 154C602.893 161.673 596.673 167.893 589 167.893C581.327 167.893 575.107 161.673 575.107 154C575.107 146.327 581.327 140.107 589 140.107C596.673 140.107 602.893 146.327 602.893 154Z" fill="#EBFF00"/>
<path fill-rule="evenodd" clip-rule="evenodd" d="M589 167.366C596.382 167.366 602.366 161.382 602.366 154C602.366 146.618 596.382 140.634 589 140.634C581.618 140.634 575.634 146.618 575.634 154C575.634 161.382 581.618 167.366 589 167.366ZM589 167.893C596.673 167.893 602.893 161.673 602.893 154C602.893 146.327 596.673 140.107 589 140.107C581.327 140.107 575.107 146.327 575.107 154C575.107 161.673 581.327 167.893 589 167.893Z" fill="#B2BF12"/>
<path d="M590.45 145.35H593.748L593.171 148.598H589.873L590.45 145.35Z" fill="black"/>
<path d="M582.513 148.597H589.874L588.91 154.02H581.549L582.513 148.597Z" fill="black"/>
<path d="M595.308 159.442H587.947L588.911 154.02H596.272L595.308 159.442Z" fill="black"/>
<path d="M587.37 162.689H584.072L584.649 159.442H587.948L587.37 162.689Z" fill="black"/>
<path d="M618.311 160.208C617.698 160.208 617.109 160.112 616.543 159.92C615.978 159.728 615.485 159.453 615.063 159.096C614.642 158.733 614.341 158.304 614.159 157.808L615.719 157.224C615.81 157.48 615.983 157.709 616.239 157.912C616.501 158.109 616.81 158.264 617.167 158.376C617.53 158.488 617.911 158.544 618.311 158.544C618.738 158.544 619.138 158.475 619.511 158.336C619.89 158.197 620.194 158.005 620.423 157.76C620.658 157.515 620.775 157.227 620.775 156.896C620.775 156.555 620.653 156.275 620.407 156.056C620.167 155.837 619.858 155.664 619.479 155.536C619.106 155.408 618.717 155.312 618.311 155.248C617.527 155.12 616.823 154.933 616.199 154.688C615.581 154.443 615.09 154.099 614.727 153.656C614.37 153.213 614.191 152.637 614.191 151.928C614.191 151.261 614.381 150.68 614.759 150.184C615.143 149.688 615.647 149.304 616.271 149.032C616.901 148.755 617.581 148.616 618.311 148.616C618.914 148.616 619.495 148.712 620.055 148.904C620.621 149.091 621.117 149.365 621.543 149.728C621.975 150.085 622.285 150.52 622.471 151.032L620.895 151.6C620.805 151.339 620.631 151.112 620.375 150.92C620.119 150.723 619.81 150.568 619.447 150.456C619.09 150.344 618.711 150.288 618.311 150.288C617.885 150.283 617.485 150.352 617.111 150.496C616.743 150.635 616.442 150.827 616.207 151.072C615.973 151.317 615.855 151.603 615.855 151.928C615.855 152.328 615.965 152.632 616.183 152.84C616.402 153.048 616.695 153.203 617.063 153.304C617.437 153.4 617.853 153.488 618.311 153.568C619.047 153.685 619.727 153.88 620.351 154.152C620.981 154.424 621.485 154.787 621.863 155.24C622.247 155.688 622.439 156.24 622.439 156.896C622.439 157.557 622.247 158.139 621.863 158.64C621.485 159.136 620.981 159.523 620.351 159.8C619.727 160.072 619.047 160.208 618.311 160.208ZM628.309 153.664H626.629L626.621 160H624.957L624.965 153.664H623.693V152H624.965L624.957 149.488H626.621L626.629 152H628.309V153.664ZM629.741 160V152H631.405V152.848C631.683 152.517 632.024 152.256 632.429 152.064C632.835 151.872 633.272 151.776 633.741 151.776C634.04 151.776 634.336 151.816 634.629 151.896L633.965 153.576C633.757 153.496 633.549 153.456 633.341 153.456C632.989 153.456 632.667 153.544 632.373 153.72C632.08 153.891 631.845 154.123 631.669 154.416C631.493 154.709 631.405 155.035 631.405 155.392V160H629.741ZM641.034 152H642.81L638.426 164H636.658L638.106 160L635.234 152H637.05L638.938 157.72L641.034 152ZM650.847 160H648.927L646.959 156.608L645.671 158.144V160H644.007V148H645.671V155.56L648.647 152H650.823L648.095 155.256L650.847 160ZM655.183 160.208C654.447 160.208 653.775 160.019 653.167 159.64C652.564 159.261 652.082 158.755 651.719 158.12C651.362 157.48 651.183 156.773 651.183 156C651.183 155.413 651.287 154.867 651.495 154.36C651.703 153.848 651.988 153.4 652.351 153.016C652.719 152.627 653.146 152.323 653.631 152.104C654.116 151.885 654.634 151.776 655.183 151.776C655.796 151.776 656.359 151.904 656.871 152.16C657.383 152.411 657.82 152.76 658.183 153.208C658.546 153.651 658.812 154.163 658.983 154.744C659.154 155.32 659.204 155.933 659.135 156.584H652.967C653.036 156.952 653.17 157.285 653.367 157.584C653.57 157.877 653.826 158.109 654.135 158.28C654.45 158.451 654.799 158.539 655.183 158.544C655.588 158.544 655.956 158.443 656.287 158.24C656.623 158.037 656.898 157.757 657.111 157.4L658.799 157.792C658.479 158.501 657.996 159.083 657.351 159.536C656.706 159.984 655.983 160.208 655.183 160.208ZM652.911 155.312H657.455C657.402 154.928 657.266 154.581 657.047 154.272C656.834 153.957 656.564 153.709 656.239 153.528C655.919 153.341 655.567 153.248 655.183 153.248C654.804 153.248 654.452 153.339 654.127 153.52C653.807 153.701 653.54 153.949 653.327 154.264C653.119 154.573 652.98 154.923 652.911 155.312Z" fill="white"/>
<path d="M608.47 232.53C608.763 232.823 609.237 232.823 609.53 232.53L614.303 227.757C614.596 227.464 614.596 226.99 614.303 226.697C614.01 226.404 613.536 226.404 613.243 226.697L609 230.939L604.757 226.697C604.464 226.404 603.99 226.404 603.697 226.697C603.404 226.99 603.404 227.464 603.697 227.757L608.47 232.53ZM608.25 176L608.25 232L609.75 232L609.75 176L608.25 176Z" fill="#5F636F"/>
<path d="M625.53 183.47C625.237 183.177 624.763 183.177 624.47 183.47L619.697 188.243C619.404 188.536 619.404 189.01 619.697 189.303C619.99 189.596 620.464 189.596 620.757 189.303L625 185.061L629.243 189.303C629.536 189.596 630.01 189.596 630.303 189.303C630.596 189.01 630.596 188.536 630.303 188.243L625.53 183.47ZM624.25 184L624.25 240L625.75 240L625.75 184L624.25 184Z" fill="#FB5B0D"/>
<rect width="61" height="20" transform="translate(594 194)" fill="#1E212A"/>
<path d="M597.996 209.182C597.459 209.182 596.944 209.098 596.449 208.93C595.954 208.762 595.523 208.522 595.154 208.209C594.785 207.892 594.522 207.516 594.363 207.082L595.728 206.571C595.807 206.795 595.959 206.996 596.183 207.173C596.412 207.346 596.682 207.481 596.995 207.579C597.312 207.677 597.646 207.726 597.996 207.726C598.369 207.726 598.719 207.665 599.046 207.544C599.377 207.423 599.643 207.255 599.844 207.04C600.049 206.825 600.152 206.573 600.152 206.284C600.152 205.985 600.045 205.74 599.83 205.549C599.62 205.358 599.349 205.206 599.018 205.094C598.691 204.982 598.351 204.898 597.996 204.842C597.31 204.73 596.694 204.567 596.148 204.352C595.607 204.137 595.177 203.836 594.86 203.449C594.547 203.062 594.391 202.558 594.391 201.937C594.391 201.354 594.557 200.845 594.888 200.411C595.224 199.977 595.665 199.641 596.211 199.403C596.762 199.16 597.357 199.039 597.996 199.039C598.523 199.039 599.032 199.123 599.522 199.291C600.017 199.454 600.451 199.695 600.824 200.012C601.202 200.325 601.473 200.705 601.636 201.153L600.257 201.65C600.178 201.421 600.026 201.223 599.802 201.055C599.578 200.882 599.307 200.747 598.99 200.649C598.677 200.551 598.346 200.502 597.996 200.502C597.623 200.497 597.273 200.558 596.946 200.684C596.624 200.805 596.36 200.973 596.155 201.188C595.95 201.403 595.847 201.652 595.847 201.937C595.847 202.287 595.943 202.553 596.134 202.735C596.325 202.917 596.582 203.052 596.904 203.141C597.231 203.225 597.595 203.302 597.996 203.372C598.64 203.475 599.235 203.645 599.781 203.883C600.332 204.121 600.773 204.438 601.104 204.835C601.44 205.227 601.608 205.71 601.608 206.284C601.608 206.863 601.44 207.371 601.104 207.81C600.773 208.244 600.332 208.582 599.781 208.825C599.235 209.063 598.64 209.182 597.996 209.182ZM606.326 209H604.877L602.532 202H603.96L605.612 206.914L607.25 202H608.72L610.358 206.914L612.003 202H613.431L611.093 209H609.63L607.978 204.051L606.326 209ZM619.691 202H621.147V209H619.684L619.628 207.985C619.423 208.344 619.145 208.634 618.795 208.853C618.445 209.072 618.032 209.182 617.556 209.182C617.043 209.182 616.56 209.086 616.107 208.895C615.655 208.699 615.256 208.428 614.91 208.083C614.57 207.738 614.304 207.341 614.112 206.893C613.921 206.44 613.825 205.955 613.825 205.437C613.825 204.938 613.919 204.469 614.105 204.03C614.292 203.587 614.551 203.199 614.882 202.868C615.214 202.537 615.596 202.278 616.03 202.091C616.469 201.9 616.938 201.804 617.437 201.804C617.946 201.804 618.394 201.921 618.781 202.154C619.173 202.383 619.498 202.677 619.754 203.036L619.691 202ZM617.521 207.775C617.932 207.775 618.291 207.675 618.599 207.474C618.907 207.269 619.145 206.993 619.313 206.648C619.486 206.303 619.572 205.92 619.572 205.5C619.572 205.075 619.486 204.69 619.313 204.345C619.141 204 618.9 203.727 618.592 203.526C618.289 203.321 617.932 203.218 617.521 203.218C617.115 203.218 616.744 203.321 616.408 203.526C616.072 203.731 615.806 204.007 615.61 204.352C615.414 204.697 615.316 205.08 615.316 205.5C615.316 205.925 615.417 206.31 615.617 206.655C615.823 206.996 616.091 207.269 616.422 207.474C616.758 207.675 617.125 207.775 617.521 207.775ZM624 212.5H622.544V202H624V203.029C624.233 202.67 624.532 202.378 624.896 202.154C625.26 201.93 625.689 201.818 626.184 201.818C626.693 201.818 627.169 201.914 627.612 202.105C628.06 202.296 628.452 202.562 628.788 202.903C629.124 203.239 629.388 203.629 629.579 204.072C629.77 204.515 629.866 204.991 629.866 205.5C629.866 206.009 629.77 206.487 629.579 206.935C629.388 207.383 629.124 207.777 628.788 208.118C628.452 208.454 628.06 208.718 627.612 208.909C627.169 209.1 626.693 209.196 626.184 209.196C625.689 209.196 625.26 209.084 624.896 208.86C624.532 208.631 624.233 208.34 624 207.985V212.5ZM626.17 203.225C625.764 203.225 625.407 203.328 625.099 203.533C624.791 203.738 624.551 204.014 624.378 204.359C624.205 204.7 624.119 205.08 624.119 205.5C624.119 205.92 624.205 206.303 624.378 206.648C624.551 206.993 624.791 207.269 625.099 207.474C625.407 207.679 625.764 207.782 626.17 207.782C626.571 207.782 626.94 207.682 627.276 207.481C627.612 207.276 627.88 207 628.081 206.655C628.282 206.31 628.382 205.925 628.382 205.5C628.382 205.085 628.282 204.704 628.081 204.359C627.885 204.014 627.619 203.738 627.283 203.533C626.947 203.328 626.576 203.225 626.17 203.225ZM634.493 209V199.2H640.268V200.656H635.949V203.022H639.596V204.478H635.949V209H634.493ZM643.753 209.182C643.109 209.182 642.521 209.016 641.989 208.685C641.462 208.354 641.039 207.91 640.722 207.355C640.409 206.795 640.253 206.177 640.253 205.5C640.253 204.987 640.344 204.508 640.526 204.065C640.708 203.617 640.958 203.225 641.275 202.889C641.597 202.548 641.97 202.282 642.395 202.091C642.82 201.9 643.272 201.804 643.753 201.804C644.29 201.804 644.782 201.916 645.23 202.14C645.678 202.359 646.061 202.665 646.378 203.057C646.695 203.444 646.929 203.892 647.078 204.401C647.227 204.905 647.272 205.442 647.211 206.011H641.814C641.875 206.333 641.991 206.625 642.164 206.886C642.341 207.143 642.565 207.346 642.836 207.495C643.111 207.644 643.417 207.721 643.753 207.726C644.108 207.726 644.43 207.637 644.719 207.46C645.013 207.283 645.253 207.038 645.44 206.725L646.917 207.068C646.637 207.689 646.215 208.197 645.65 208.594C645.085 208.986 644.453 209.182 643.753 209.182ZM641.765 204.898H645.741C645.694 204.562 645.575 204.259 645.384 203.988C645.197 203.713 644.962 203.496 644.677 203.337C644.397 203.174 644.089 203.092 643.753 203.092C643.422 203.092 643.114 203.171 642.829 203.33C642.549 203.489 642.316 203.706 642.129 203.981C641.947 204.252 641.826 204.557 641.765 204.898ZM651.437 209.182C650.793 209.182 650.205 209.016 649.673 208.685C649.145 208.354 648.723 207.91 648.406 207.355C648.093 206.795 647.937 206.177 647.937 205.5C647.937 204.987 648.028 204.508 648.21 204.065C648.392 203.617 648.641 203.225 648.959 202.889C649.281 202.548 649.654 202.282 650.079 202.091C650.503 201.9 650.956 201.804 651.437 201.804C651.973 201.804 652.466 201.916 652.914 202.14C653.362 202.359 653.744 202.665 654.062 203.057C654.379 203.444 654.612 203.892 654.762 204.401C654.911 204.905 654.955 205.442 654.895 206.011H649.498C649.558 206.333 649.675 206.625 649.848 206.886C650.025 207.143 650.249 207.346 650.52 207.495C650.795 207.644 651.101 207.721 651.437 207.726C651.791 207.726 652.113 207.637 652.403 207.46C652.697 207.283 652.937 207.038 653.124 206.725L654.601 207.068C654.321 207.689 653.898 208.197 653.334 208.594C652.769 208.986 652.137 209.182 651.437 209.182ZM649.449 204.898H653.425C653.378 204.562 653.259 204.259 653.068 203.988C652.881 203.713 652.645 203.496 652.361 203.337C652.081 203.174 651.773 203.092 651.437 203.092C651.105 203.092 650.797 203.171 650.513 203.33C650.233 203.489 649.999 203.706 649.813 203.981C649.631 204.252 649.509 204.557 649.449 204.898Z" fill="white"/>
</svg>
