<svg fill="none" height="40" viewBox="0 0 183 40" width="183" xmlns="http://www.w3.org/2000/svg" xmlns:xlink="http://www.w3.org/1999/xlink"><clipPath id="a"><path d="m0 2h183v36h-183z"/></clipPath><g clip-path="url(#a)" fill="#fff"><path d="m23.6652 18.6849h-6.3117c.0063-4.4222 1.7954-8.6615 4.9752-11.78843 3.1798-3.12697 7.4907-4.88641 11.9875-4.89256v6.20689c-2.8248 0-5.5339 1.10353-7.5314 3.0678-1.9974 1.9643-3.1196 4.6284-3.1196 7.4063z"/><path d="m16.9666 35.366c-4.4988 0-8.81328-1.7575-11.9944-4.8858-3.18113-3.1283-4.96829375-7.3712-4.96829375-11.7953 0-4.424 1.78716375-8.6669 4.96829375-11.79523 3.18112-3.1283 7.4956-4.88576 11.9944-4.88576v6.20689c-2.1066 0-4.1658.61429-5.9174 1.7652-1.7515 1.1509-3.11666 2.7868-3.92281 4.7007s-1.01709 4.0199-.60612 6.0516c.41097 2.0318 1.42541 3.8981 2.91498 5.363 1.48955 1.4648 3.38745 2.4624 5.45345 2.8665 2.0661.4042 4.2077.1968 6.1539-.596s3.6097-2.1353 4.78-3.8577c1.1704-1.7225 1.795-3.7476 1.795-5.8192h6.3117c-.0052 4.4226-1.794 8.6625-4.974 11.7896-3.18 3.1272-7.4915 4.8863-11.9887 4.8915z"/><path d="m46.6592 18.685c0-6.8276 4.931-11.68061 11.8739-11.68061s11.8778 4.85301 11.8778 11.68061-4.9349 11.6767-11.8778 11.6767-11.8739-4.8142-11.8739-11.6767zm17.8108 0c0-3.8211-2.3274-6.2884-5.9172-6.2884s-5.9172 2.4673-5.9172 6.2884 2.3314 6.2884 5.9172 6.2884 5.9172-2.4712 5.9172-6.2884z"/><path d="m85.4844 18.6847c0-6.8276 4.931-11.68058 11.8739-11.68058 2.129-.02531 4.2077.637 5.9167 1.88534v-1.43535h5.941v22.45729h-5.941v-1.4353c-1.709 1.2483-3.7877 1.9106-5.9167 1.8853-6.9429 0-11.8739-4.8142-11.8739-11.6767zm17.8106 0c0-3.8211-2.327-6.2884-5.917-6.2884-3.5898 0-5.9172 2.4673-5.9172 6.2884s2.3274 6.2884 5.9172 6.2884c3.59 0 5.917-2.4711 5.917-6.2884z"/><path d="m111.52 7.45426h5.917v1.43535c1.419-1.24092 3.26-1.91359 5.16-1.88534 5.345 0 9.226 3.90643 9.226 9.43453v13.4728h-5.917v-13.4728c0-2.3819-1.783-4.0423-4.201-4.0423-2.513 0-4.249 1.6604-4.249 4.0423v13.4728h-5.917z"/><path d="m145.548 32.6076c3.424 0 5.708-2.2461 5.917-5.7956-1.733 1.1883-3.805 1.8025-5.917 1.7534-6.943 0-11.878-4.4922-11.878-10.7806s4.935-10.7806 11.878-10.7806c2.112-.04913 4.184.56507 5.917 1.75343v-1.30344h5.917v18.86901c0 6.8702-4.931 11.6767-11.874 11.6767-6.075 0-11.01-3.5923-11.511-9.4306h6.075c.497 2.7349 2.734 4.0383 5.476 4.0383zm5.917-14.8228c0-3.278-2.327-5.3884-5.917-5.3884s-5.937 2.1104-5.937 5.3884 2.327 5.3884 5.937 5.3884c3.609 0 5.937-2.1104 5.937-5.3845z"/><path d="m182.775 20.9311h-17.314c.734 2.6496 2.789 4.2673 5.665 4.2673 1.874 0 3.519-.4461 4.521-2.0211h6.58c-1.144 4.5388-5.803 7.1883-11.101 7.1883-6.943 0-11.874-4.8064-11.874-11.6767s4.931-11.6806 11.874-11.6806 11.874 4.853 11.874 11.6806c-.007.7525-.082 1.5029-.225 2.2422zm-17.176-4.9422h11.046c-.821-2.3819-2.833-3.8172-5.523-3.8172s-4.698 1.4353-5.523 3.8172z"/><path d="m78.135 29.8651h-5.5227v-10.5592c.0031-3.2369 1.3121-6.3403 3.6395-8.6291 2.3275-2.28885 5.4833-3.57606 8.7748-3.57914v5.43104c-1.8271.002-3.5788.7167-4.8708 1.9872-1.2919 1.2706-2.0187 2.9932-2.0208 4.79z"/></g></svg>