<svg width="20" height="20" viewBox="0 0 20 20" fill="none" xmlns="http://www.w3.org/2000/svg">
<path d="M1.66602 1.66675L3.33268 3.33341M18.3327 1.66675L16.666 3.33341M18.3327 18.3334L16.666 16.6667M1.66602 18.3334L3.33268 16.6667M1.66602 13.3334H2.91602M6.66602 1.66675V2.91675M18.3327 6.66675H17.0827M13.3327 18.3334V17.0834M14.9993 13.3334H17.916M13.3327 1.66675V5.00008M1.66602 6.66675H4.99935M6.66602 18.3334V15.0001M9.52794 6.30482L6.30409 9.52868C6.13908 9.69368 6.05658 9.77619 6.02566 9.87132C5.99847 9.95501 5.99847 10.0452 6.02566 10.1288C6.05658 10.224 6.13908 10.3065 6.30409 10.4715L9.52794 13.6953C9.69295 13.8603 9.77546 13.9429 9.87059 13.9738C9.95428 14.001 10.0444 14.001 10.1281 13.9738C10.2232 13.9429 10.3057 13.8604 10.4708 13.6953L13.6946 10.4715C13.8596 10.3065 13.9421 10.224 13.973 10.1288C14.0002 10.0452 14.0002 9.95501 13.973 9.87132C13.9421 9.77619 13.8596 9.69368 13.6946 9.52868L10.4708 6.30482C10.3057 6.13981 10.2232 6.05731 10.1281 6.0264C10.0444 5.99921 9.95428 5.99921 9.87059 6.0264C9.77546 6.05731 9.69295 6.13981 9.52794 6.30482Z" stroke="white" stroke-width="1.5" stroke-linecap="round" stroke-linejoin="round"/>
</svg>
