<svg width="32" height="32" viewBox="0 0 32 32" fill="none" xmlns="http://www.w3.org/2000/svg">
<g filter="url(#filter0_d_1070_6077)">
<path d="M14 23C19.5228 23 24 18.5228 24 13C24 7.47715 19.5228 3 14 3C8.47715 3 4 7.47715 4 13C4 18.5228 8.47715 23 14 23Z" fill="#FB5B0D"/>
<path d="M14 21.7928C18.8561 21.7928 22.7928 17.8561 22.7928 13C22.7928 8.1439 18.8561 4.20724 14 4.20724C9.1439 4.20724 5.20724 8.1439 5.20724 13C5.20724 17.8561 9.1439 21.7928 14 21.7928Z" fill="#FFEBC4"/>
<path d="M14 14.9018C15.0503 14.9018 15.9018 14.0503 15.9018 13C15.9018 11.9497 15.0503 11.0982 14 11.0982C12.9497 11.0982 12.0982 11.9497 12.0982 13C12.0982 14.0503 12.9497 14.9018 14 14.9018Z" fill="white"/>
<path d="M16.0099 5.68338C15.353 5.50411 14.6765 5.41449 14 5.41449V11.8813C14.2849 11.8813 14.5296 11.7096 14.6364 11.464H16.5969V6.71397C16.7196 6.26717 16.4567 5.80612 16.0099 5.68338Z" fill="#FB5B0D"/>
<path d="M15.0862 5.68338C14.7313 5.50411 14.3656 5.41449 14 5.41449C13.3235 5.41449 12.647 5.50411 11.9901 5.68338C11.5433 5.80612 11.2804 6.26717 11.4031 6.71401V11.464H13.3636C13.4703 11.7096 13.7151 11.8813 14 11.8813C14.1539 11.8813 14.2862 11.7096 14.3439 11.464L15.4035 6.71401C15.4698 6.26717 15.3277 5.80612 15.0862 5.68338Z" fill="#F68A2F"/>
<path d="M20.5949 9.24756C20.2571 8.65634 19.8421 8.11461 19.3638 7.63622L14.791 12.209C14.9924 12.4104 15.287 12.462 15.5361 12.3639L16.9224 13.7501L20.2812 10.3913C20.6839 10.1622 20.824 9.6503 20.5949 9.24756Z" fill="#FB5B0D"/>
<path d="M19.9417 8.59445C19.8175 8.21666 19.6223 7.89477 19.3637 7.63622C18.8854 7.15787 18.3436 6.74286 17.7524 6.40515C17.3497 6.17598 16.8377 6.3161 16.6086 6.71884L14.6361 11.4639C14.5379 11.713 14.5895 12.0075 14.7909 12.209C14.8998 12.3178 15.1148 12.2899 15.3292 12.1571L19.4372 9.54753C19.8002 9.27847 20.0257 8.852 19.9417 8.59445Z" fill="#F68A2F"/>
<path d="M21.3166 15.0099C21.4959 14.353 21.5855 13.6765 21.5855 13H15.1187C15.1187 13.2849 15.2904 13.5296 15.536 13.6364V15.5969H20.286C20.7328 15.7196 21.1939 15.4567 21.3166 15.0099Z" fill="#FB5B0D"/>
<path d="M21.3166 14.0862C21.4959 13.7312 21.5855 13.3656 21.5855 13C21.5855 12.3235 21.4959 11.647 21.3166 10.9901C21.1939 10.5433 20.7328 10.2804 20.286 10.4031L15.536 12.3636C15.2904 12.4703 15.1187 12.7151 15.1187 13C15.1187 13.1539 15.2904 13.2862 15.536 13.3439L20.286 14.4035C20.7328 14.4698 21.1939 14.3277 21.3166 14.0862Z" fill="#F68A2F"/>
<path d="M17.7524 19.5948C18.3437 19.2571 18.8854 18.8421 19.3638 18.3638L14.791 13.791C14.5896 13.9924 14.538 14.287 14.6361 14.5361L13.2499 15.9224L16.6087 19.2812C16.8378 19.6839 17.3497 19.824 17.7524 19.5948Z" fill="#FB5B0D"/>
<path d="M18.4056 18.9417C18.7833 18.8175 19.1052 18.6223 19.3638 18.3637C19.8421 17.8854 20.2571 17.3436 20.5948 16.7524C20.824 16.3497 20.6839 15.8377 20.2812 15.6086L15.5361 13.6361C15.287 13.5379 14.9925 13.5895 14.791 13.7909C14.6822 13.8998 14.7101 14.1148 14.8429 14.3292L17.4525 18.4372C17.7215 18.8002 18.148 19.0257 18.4056 18.9417Z" fill="#F68A2F"/>
<path d="M11.9901 20.3166C12.647 20.4959 13.3235 20.5855 14 20.5855V14.1187C13.7151 14.1187 13.4704 14.2904 13.3636 14.536H11.4031V19.286C11.2804 19.7328 11.5433 20.1939 11.9901 20.3166Z" fill="#FB5B0D"/>
<path d="M12.9138 20.3166C13.2688 20.4959 13.6344 20.5855 14 20.5855C14.6765 20.5855 15.353 20.4959 16.0099 20.3166C16.4567 20.1939 16.7196 19.7328 16.5969 19.286L14.6364 14.536C14.5297 14.2904 14.2849 14.1187 14 14.1187C13.8461 14.1187 13.7138 14.2904 13.6561 14.536L12.5965 19.286C12.5302 19.7328 12.6723 20.1939 12.9138 20.3166Z" fill="#F68A2F"/>
<path d="M7.40514 16.7524C7.74285 17.3437 8.15786 17.8854 8.63621 18.3638L13.209 13.791C13.0076 13.5896 12.713 13.538 12.4639 13.6361L11.0776 12.2499L7.71883 15.6087C7.31609 15.8378 7.17601 16.3497 7.40514 16.7524Z" fill="#FB5B0D"/>
<path d="M8.05827 17.4056C8.18254 17.7833 8.37771 18.1052 8.63626 18.3638C9.11461 18.8421 9.65638 19.2571 10.2476 19.5948C10.6503 19.824 11.1623 19.6839 11.3914 19.2812L13.3639 14.5361C13.4621 14.287 13.4105 13.9925 13.2091 13.791C13.1002 13.6822 12.8852 13.7101 12.6708 13.8429L8.56278 16.4525C8.19984 16.7215 7.97429 17.148 8.05827 17.4056Z" fill="#F68A2F"/>
<path d="M6.68338 10.9901C6.50411 11.647 6.41449 12.3235 6.41449 13H12.8813C12.8813 12.7151 12.7096 12.4704 12.464 12.3636V10.4031H7.71397C7.26717 10.2804 6.80612 10.5433 6.68338 10.9901Z" fill="#FB5B0D"/>
<path d="M6.68338 11.9138C6.50411 12.2687 6.41449 12.6344 6.41449 13C6.41449 13.6765 6.50411 14.353 6.68338 15.0099C6.80612 15.4567 7.26717 15.7196 7.71401 15.5969L12.464 13.6364C12.7096 13.5297 12.8813 13.2849 12.8813 13C12.8813 12.8461 12.7096 12.7138 12.464 12.6561L7.71401 11.5965C7.26717 11.5302 6.80612 11.6723 6.68338 11.9138Z" fill="#F68A2F"/>
<path d="M10.2476 6.40515C9.65634 6.74286 9.11461 7.15787 8.63622 7.63622L13.209 12.209C13.4104 12.0076 13.4621 11.713 13.3639 11.4639L11.3914 6.71883C11.1622 6.3161 10.6503 6.17602 10.2476 6.40515Z" fill="#FB5B0D"/>
<path d="M9.59444 7.05827C9.21666 7.18254 8.89476 7.37771 8.63621 7.63626C8.15786 8.11461 7.74285 8.65638 7.40515 9.24761C7.17597 9.65034 7.31609 10.1623 7.71883 10.3914L12.4639 12.3639C12.713 12.4621 13.0075 12.4105 13.209 12.2091C13.3178 12.1002 13.2899 11.8852 13.1571 11.6708L10.5475 7.56278C10.2785 7.19984 9.85199 6.97429 9.59444 7.05827Z" fill="#F68A2F"/>
</g>
<defs>
<filter id="filter0_d_1070_6077" x="0" y="0" width="32" height="32" filterUnits="userSpaceOnUse" color-interpolation-filters="sRGB">
<feFlood flood-opacity="0" result="BackgroundImageFix"/>
<feColorMatrix in="SourceAlpha" type="matrix" values="0 0 0 0 0 0 0 0 0 0 0 0 0 0 0 0 0 0 127 0" result="hardAlpha"/>
<feOffset dx="2" dy="3"/>
<feGaussianBlur stdDeviation="3"/>
<feComposite in2="hardAlpha" operator="out"/>
<feColorMatrix type="matrix" values="0 0 0 0 0.984314 0 0 0 0 0.38698 0 0 0 0 0.0509804 0 0 0 0.72 0"/>
<feBlend mode="normal" in2="BackgroundImageFix" result="effect1_dropShadow_1070_6077"/>
<feBlend mode="normal" in="SourceGraphic" in2="effect1_dropShadow_1070_6077" result="shape"/>
</filter>
</defs>
</svg>
