
<svg width="16" height="19" viewBox="0 0 16 19" fill="none" xmlns="http://www.w3.org/2000/svg">
<path d="M5.67812 12.0834C5.93829 12.5788 6.45779 12.9167 7.05621 12.9167H8.83398C9.75446 12.9167 10.5007 12.1705 10.5007 11.2501C10.5007 10.3296 9.75446 9.58339 8.83398 9.58339H7.16732C6.24684 9.58339 5.50065 8.8372 5.50065 7.91672C5.50065 6.99625 6.24684 6.25006 7.16732 6.25006H8.9451C9.54352 6.25006 10.063 6.58797 10.3232 7.08339M8.00065 5.00006V6.25006M8.00065 12.9167V14.1667M14.6673 10.0001C14.6673 14.0904 10.2057 17.0654 8.58231 18.0125C8.39782 18.1201 8.30557 18.1739 8.17538 18.2018C8.07435 18.2235 7.92695 18.2235 7.82592 18.2018C7.69573 18.1739 7.60349 18.1201 7.41899 18.0125C5.79562 17.0654 1.33398 14.0904 1.33398 10.0001V6.01472C1.33398 5.34846 1.33398 5.01533 1.44295 4.72898C1.53921 4.47601 1.69564 4.25029 1.8987 4.07133C2.12856 3.86875 2.44048 3.75178 3.06432 3.51785L7.53249 1.84228C7.70573 1.77732 7.79236 1.74483 7.88147 1.73196C7.96051 1.72053 8.04079 1.72053 8.11983 1.73196C8.20895 1.74483 8.29557 1.77732 8.46882 1.84228L12.937 3.51785C13.5608 3.75178 13.8727 3.86875 14.1026 4.07133C14.3057 4.25029 14.4621 4.47601 14.5584 4.72898C14.6673 5.01533 14.6673 5.34846 14.6673 6.01472V10.0001Z" stroke="white" stroke-width="1.5" stroke-linecap="round" stroke-linejoin="round"/>
</svg>
